<?xml version="1.0" standalone="no"?>
<!DOCTYPE svg PUBLIC "-//W3C//DTD SVG 20010904//EN"
 "http://www.w3.org/TR/2001/REC-SVG-20010904/DTD/svg10.dtd">
<svg version="1.0" xmlns="http://www.w3.org/2000/svg"
 width="917.000000pt" height="917.000000pt" viewBox="0 0 917.000000 917.000000"
 preserveAspectRatio="xMidYMid meet">
<metadata>
Created by potrace 1.14, written by Peter Selinger 2001-2017
</metadata>
<g transform="translate(0.000000,917.000000) scale(0.100000,-0.100000)"
fill="#000000" stroke="none">
<path d="M0 9080 c0 -81 8 -107 25 -81 3 6 16 4 30 -3 17 -9 39 -11 66 -6 36
7 41 5 49 -15 5 -12 17 -25 26 -29 16 -6 16 -8 4 -16 -8 -6 -10 -10 -4 -10 24
0 34 26 19 46 -8 10 -15 25 -15 32 0 23 18 12 32 -18 7 -16 17 -31 23 -32 27
-4 61 -2 65 4 3 4 22 -3 42 -17 l36 -25 7 30 c4 17 11 30 16 30 5 0 9 4 9 10
0 5 -8 7 -17 4 -14 -4 -13 -1 4 14 14 13 37 20 65 20 l43 1 -33 -16 c-35 -17
-42 -33 -15 -33 9 0 24 -6 32 -14 16 -14 46 -20 88 -18 15 2 26 13 34 37 15
39 18 40 74 21 35 -12 42 -12 56 0 14 13 18 12 30 -6 11 -16 25 -21 65 -22 29
0 57 3 64 7 20 12 70 16 70 5 0 -6 16 -10 36 -10 31 0 35 -2 24 -15 -11 -13
-7 -15 26 -15 22 0 34 -4 28 -8 -9 -5 -8 -11 2 -20 8 -7 14 -9 14 -4 0 4 15
13 33 20 41 15 50 15 42 2 -4 -6 19 -9 62 -9 37 1 56 4 41 6 -42 6 -34 20 12
20 22 0 37 -4 34 -9 -3 -5 6 -6 23 -2 l28 7 -19 -22 c-23 -26 -16 -36 19 -27
18 5 25 12 21 21 -6 16 12 23 73 27 43 2 44 2 47 -30 6 -50 22 -60 93 -58 36
0 66 -4 69 -10 4 -6 22 -16 40 -22 26 -9 32 -8 32 4 0 7 8 14 18 14 10 0 28 9
40 20 20 19 27 16 24 -11 -2 -17 51 7 60 27 9 19 19 24 50 24 21 0 38 -4 38
-10 0 -5 -18 -10 -40 -10 -22 0 -40 -4 -40 -10 0 -11 42 -13 89 -4 24 5 30 11
26 24 -4 13 1 19 20 22 23 5 25 2 25 -28 0 -23 -5 -34 -17 -36 -16 -3 -15 -6
5 -17 19 -10 29 -10 52 1 17 7 30 16 30 20 0 4 14 2 30 -3 42 -15 37 -26 -15
-33 -25 -4 -45 -11 -45 -16 0 -14 111 -5 120 9 6 10 12 10 29 2 17 -9 21 -9
21 2 0 8 -13 20 -28 26 -15 7 -40 31 -55 54 -23 35 -25 43 -12 45 9 2 27 -8
40 -22 13 -14 20 -26 15 -26 -6 0 -10 -7 -10 -16 0 -13 7 -15 33 -11 18 3 46
3 62 -1 26 -5 27 -6 10 -13 -17 -7 -15 -8 10 -8 17 0 45 -3 63 -7 20 -4 38 -2
47 6 12 10 18 10 32 -1 15 -12 16 -12 11 2 -5 13 1 18 22 23 23 4 29 11 33 38
4 31 4 30 5 -7 1 -22 -3 -47 -8 -55 -6 -10 -10 -11 -10 -2 0 6 -4 12 -10 12
-5 0 -10 -11 -10 -25 0 -14 -4 -25 -10 -25 -5 0 -10 -7 -10 -15 0 -23 -18 -18
-23 8 -4 19 -4 18 -6 -5 -1 -22 3 -28 19 -28 11 0 23 6 26 14 6 16 68 11 90
-6 7 -5 30 -6 52 -2 41 6 72 -9 72 -35 0 -6 5 -11 10 -11 6 0 10 7 10 15 0 11
13 14 61 13 63 -2 70 2 99 52 8 13 11 12 23 -4 9 -12 20 -17 31 -13 9 4 24 3
34 -1 12 -5 6 -9 -23 -13 -32 -5 -26 -6 30 -7 47 0 63 2 50 8 -16 6 -12 8 18
8 33 -1 37 -4 37 -28 0 -25 -4 -28 -45 -34 -25 -4 -66 -4 -92 0 -27 3 -45 3
-41 -1 5 -5 46 -13 93 -20 70 -9 85 -9 85 2 0 11 6 10 31 -2 39 -21 64 -13 49
14 -15 29 -13 32 16 25 17 -4 29 -2 34 6 10 17 110 23 106 7 -2 -7 -1 -9 1 -4
14 24 70 -8 61 -35 -9 -27 23 -36 66 -19 l40 16 -39 12 c-36 10 -37 12 -12 12
16 1 26 5 23 9 -3 5 14 9 37 9 23 0 47 2 52 3 6 1 24 2 40 1 23 -1 27 -3 15
-11 -8 -6 -27 -8 -41 -5 -14 3 -36 2 -48 -3 l-23 -8 25 -17 c14 -9 36 -18 48
-20 13 -2 18 -2 12 0 -7 3 -13 9 -13 14 0 7 32 8 90 3 78 -6 90 -5 85 8 -4 9
1 18 10 22 9 3 13 10 10 16 -4 6 5 10 22 9 23 0 25 -2 9 -8 -11 -4 -15 -10
-10 -13 14 -9 115 7 122 19 4 6 21 13 37 14 28 4 30 2 27 -23 -2 -16 1 -28 7
-28 6 0 11 -7 11 -15 0 -18 12 -19 27 -4 13 13 47 4 38 -10 -11 -19 17 -23 31
-5 13 18 14 18 32 -5 18 -22 19 -22 26 -5 6 16 9 16 17 4 8 -13 10 -13 20 0 8
11 12 12 15 3 4 -9 10 -10 24 -1 14 9 22 9 34 -1 13 -11 16 -11 16 0 0 8 7 23
15 34 15 18 16 18 33 1 12 -14 14 -20 5 -23 -28 -10 -11 -23 27 -21 39 1 70
18 34 18 -10 0 -15 3 -11 6 3 4 17 4 31 0 18 -4 28 -16 35 -39 7 -23 9 -26 10
-10 1 17 9 23 42 28 28 5 37 10 28 16 -7 4 -10 11 -6 16 7 7 20 -6 31 -32 3
-6 9 -3 15 5 10 13 12 13 22 0 7 -10 12 -11 15 -4 3 6 16 9 29 6 27 -5 33 -17
12 -25 -6 -3 3 -6 22 -6 33 -1 34 -2 15 -16 -10 -8 -14 -15 -7 -15 24 0 43 13
43 31 0 12 7 19 20 19 11 0 20 5 20 10 0 15 -47 12 -53 -2 -4 -8 -6 -7 -6 3
-1 20 27 29 57 18 16 -6 22 -16 21 -31 -1 -13 -1 -36 -1 -52 l2 -29 57 6 c35
4 60 12 65 21 5 8 15 13 23 10 11 -5 15 2 16 22 1 24 2 25 6 7 3 -14 12 -23
23 -23 10 0 22 -10 26 -22 9 -30 31 -51 39 -38 3 6 -1 17 -9 26 -20 20 -20 40
-1 48 8 3 15 15 15 26 0 26 26 26 33 0 7 -27 25 -25 30 3 3 13 5 8 6 -15 1
-26 6 -38 16 -38 9 0 12 6 9 15 -5 12 3 15 38 15 41 0 68 13 68 32 0 4 -12 8
-26 8 -22 0 -24 2 -14 14 9 12 17 13 36 4 31 -15 34 -67 4 -75 -24 -6 -26 -19
-5 -27 8 -3 19 3 25 12 6 12 12 13 17 6 14 -20 113 -43 141 -33 36 14 20 22
-43 21 l-55 0 0 39 c0 21 5 39 10 39 6 0 10 -9 10 -20 0 -23 10 -26 28 -8 9 9
12 7 13 -13 0 -13 3 -18 6 -11 7 18 33 15 33 -4 0 -14 9 -16 63 -10 34 3 76 2
92 -3 17 -5 23 -10 15 -11 -8 -1 -4 -5 10 -9 29 -9 53 -3 44 10 -3 5 0 9 5 9
6 0 11 -8 11 -18 0 -46 67 -59 86 -17 9 18 9 26 0 30 -6 3 5 3 24 -1 19 -3 51
-7 70 -9 34 -3 34 -2 5 5 -28 7 -28 7 12 9 23 0 44 -4 46 -9 3 -6 4 -5 3 2 -2
9 -22 12 -65 11 -47 -1 -61 2 -61 13 0 10 15 14 60 14 33 0 60 4 60 10 0 6 -5
10 -12 10 -6 0 -9 2 -7 5 3 2 15 2 27 -2 17 -4 21 -10 16 -29 -6 -21 -3 -24
25 -24 17 0 31 -4 31 -9 0 -5 36 -12 80 -16 69 -6 80 -10 80 -26 0 -10 -7 -22
-16 -27 -14 -8 -14 -10 0 -21 9 -8 23 -10 33 -6 12 5 14 9 6 12 -26 9 -12 23
22 23 31 0 35 3 35 25 0 14 -6 25 -12 25 -32 1 21 20 57 21 l40 1 -45 10 c-37
9 -41 12 -25 19 17 6 17 8 3 8 -33 2 -18 21 15 21 51 0 79 -11 73 -27 -8 -21
12 -53 33 -53 15 0 18 8 17 45 l-1 45 -62 0 c-57 0 -63 2 -63 21 0 11 7 28 16
37 15 15 17 15 28 0 7 -9 28 -19 47 -21 19 -2 10 -3 -18 -1 -39 2 -53 -1 -53
-11 0 -7 6 -13 13 -12 50 2 178 -6 162 -10 -23 -6 -45 -22 -45 -33 0 -4 16
-11 36 -15 32 -6 35 -9 29 -32 -6 -25 -5 -25 37 -20 44 6 120 9 192 8 37 -1
39 -2 20 -16 -10 -8 -14 -15 -9 -15 19 -2 -30 -19 -60 -20 -25 -1 -27 -2 -10
-9 11 -4 48 -6 83 -3 53 4 62 7 62 24 0 22 15 39 49 57 19 10 21 15 10 22 -17
11 -10 12 69 9 34 -1 68 3 75 8 8 7 18 7 27 2 12 -8 13 -13 2 -30 -7 -12 -8
-20 -2 -20 5 0 10 -6 10 -13 0 -16 61 -10 72 7 5 6 8 2 8 -10 0 -12 7 -27 15
-34 16 -13 39 -4 29 11 -3 6 3 13 15 16 12 3 24 17 28 32 7 29 20 41 46 41 14
0 17 -5 11 -22 -3 -13 -11 -24 -15 -26 -5 -2 -9 -17 -9 -34 0 -25 3 -28 14
-19 7 6 20 9 29 5 10 -4 15 0 14 13 -3 28 58 31 66 4 6 -24 37 -29 37 -6 0 8
-4 15 -9 15 -13 0 -20 36 -10 51 6 10 9 11 9 2 0 -7 12 -13 26 -13 19 0 25 -4
20 -15 -3 -8 -1 -15 4 -15 6 0 10 -16 10 -35 0 -23 5 -35 14 -35 9 0 12 10 9
35 -2 25 1 35 10 35 7 0 13 -8 13 -17 -1 -10 3 -19 8 -20 5 -1 12 -5 15 -10
13 -18 60 -42 66 -34 3 5 -1 12 -7 15 -7 4 -3 4 10 2 26 -5 31 20 5 27 -11 3
-8 5 9 6 15 1 31 -6 36 -15 8 -14 11 -12 19 12 10 28 13 29 57 26 29 -3 46 -9
46 -17 0 -17 31 -28 44 -15 7 7 6 14 -2 22 -7 7 -12 16 -12 21 0 5 7 2 15 -7
8 -8 15 -19 15 -24 0 -16 47 -34 69 -27 16 5 20 12 15 27 -4 15 -2 19 7 16 8
-3 22 -1 32 4 13 7 26 5 42 -6 16 -10 47 -16 86 -16 53 0 60 2 49 15 -11 13
-8 15 13 15 14 0 27 5 29 12 9 25 36 -2 43 -44 l8 -43 10 40 c5 22 15 43 21
47 11 7 -2 14 -39 20 -24 4 -34 38 -11 38 9 0 16 -4 16 -10 0 -5 9 -10 20 -10
11 0 20 7 20 15 0 8 5 15 10 15 6 0 10 -8 8 -17 -2 -13 3 -18 20 -17 20 1 23
-3 19 -24 -3 -18 0 -26 14 -29 23 -6 23 -10 5 -29 -13 -12 -17 -12 -30 1 -8 8
-19 15 -25 15 -15 0 -14 -27 2 -33 9 -4 9 -8 -2 -15 -10 -7 -5 -11 18 -14 17
-2 31 -2 31 2 0 3 17 6 38 5 33 0 37 -4 40 -28 2 -15 8 -25 13 -21 5 3 16 1
23 -5 11 -9 18 -8 30 4 23 23 20 35 -10 35 -14 0 -23 4 -19 10 6 10 88 6 128
-6 19 -6 24 12 5 19 -10 4 -10 6 -1 6 15 1 36 -36 30 -53 -3 -7 -1 -19 4 -27
7 -11 11 -11 22 5 11 15 18 16 34 8 11 -6 29 -8 41 -5 16 4 22 1 22 -11 0 -9
5 -16 10 -16 6 0 10 9 10 20 0 10 9 24 20 30 11 6 20 17 20 24 0 29 25 23 27
-5 1 -16 -2 -29 -7 -29 -6 0 -10 -8 -10 -17 0 -10 4 -14 8 -8 10 14 49 35 66
35 8 0 17 -6 19 -12 3 -8 6 -6 6 5 1 11 9 17 25 17 13 0 26 7 29 14 5 12 -2
14 -29 12 -19 -2 -37 -6 -41 -10 -11 -11 -35 -6 -31 7 5 14 106 19 114 6 3 -5
23 -9 45 -9 22 0 38 4 35 8 -2 4 10 9 27 9 26 2 28 0 12 -7 -14 -6 -15 -9 -5
-10 29 -3 -24 -19 -65 -19 -56 -2 -74 -14 -52 -36 21 -21 63 -16 59 6 -2 13 7
18 38 21 52 5 72 -7 28 -16 -28 -6 -30 -8 -16 -17 13 -7 16 -17 12 -38 -5 -25
-3 -29 23 -34 15 -3 38 -8 51 -12 20 -7 22 -4 22 24 0 23 -5 31 -17 31 -10 0
-26 7 -37 15 -18 13 -17 14 7 20 14 4 31 4 36 0 7 -4 11 14 11 54 0 41 -4 61
-12 61 -9 0 -9 3 0 12 9 9 12 88 12 295 l0 283 -4585 0 -4585 0 0 -90z m320
70 c0 -5 -5 -10 -11 -10 -5 0 -7 5 -4 10 3 6 8 10 11 10 2 0 4 -4 4 -10z m487
-112 c-3 -8 -6 -5 -6 6 -1 11 2 17 5 13 3 -3 4 -12 1 -19z m516 5 c-7 -2 -21
-2 -30 0 -10 3 -4 5 12 5 17 0 24 -2 18 -5z m-233 -23 c0 -5 -4 -10 -10 -10
-5 0 -10 5 -10 10 0 6 5 10 10 10 6 0 10 -4 10 -10z m-937 -7 c-7 -2 -19 -2
-25 0 -7 3 -2 5 12 5 14 0 19 -2 13 -5z m1184 1 c-3 -3 -12 -4 -19 -1 -8 3 -5
6 6 6 11 1 17 -2 13 -5z m190 -29 c-4 -8 -12 -15 -19 -14 -10 0 -10 2 0 6 6 2
12 12 12 21 0 8 3 13 6 9 4 -3 4 -13 1 -22z m-1222 5 c3 -6 -1 -13 -10 -16
-19 -8 -30 0 -20 15 8 14 22 14 30 1z m240 0 c3 -6 -1 -13 -10 -16 -19 -8 -30
0 -20 15 8 14 22 14 30 1z m325 6 c0 -2 -16 -6 -35 -8 -19 -2 -35 0 -35 4 0 4
16 8 35 8 19 0 35 -2 35 -4z m235 -6 c3 -5 -3 -10 -14 -10 -12 0 -21 5 -21 10
0 6 6 10 14 10 8 0 18 -4 21 -10z m275 6 c0 -3 -4 -8 -10 -11 -5 -3 -10 -1
-10 4 0 6 5 11 10 11 6 0 10 -2 10 -4z m-149 -29 c-13 -13 -26 -3 -16 12 3 6
11 8 17 5 6 -4 6 -10 -1 -17z m-108 -4 c-7 -2 -21 -2 -30 0 -10 3 -4 5 12 5
17 0 24 -2 18 -5z m797 -18 c0 -3 -9 -14 -20 -25 -20 -20 -20 -20 -39 -1 -20
20 -20 20 2 24 34 7 57 7 57 2z m-264 -52 c-7 -7 -26 7 -26 19 0 6 6 6 15 -2
9 -7 13 -15 11 -17z m184 12 c0 -8 -4 -15 -10 -15 -5 0 -10 7 -10 15 0 8 5 15
10 15 6 0 10 -7 10 -15z m143 8 c-13 -2 -33 -2 -45 0 -13 2 -3 4 22 4 25 0 35
-2 23 -4z m137 -13 c0 -5 -7 -10 -15 -10 -8 0 -15 5 -15 10 0 6 7 10 15 10 8
0 15 -4 15 -10z m-410 -10 c0 -5 -5 -10 -11 -10 -5 0 -7 5 -4 10 3 6 8 10 11
10 2 0 4 -4 4 -10z m70 -32 c0 -5 -7 -8 -15 -8 -10 0 -15 10 -15 27 0 26 1 26
15 7 8 -10 15 -22 15 -26z m620 32 c0 -5 -6 -10 -14 -10 -8 0 -18 5 -21 10 -3
6 3 10 14 10 12 0 21 -4 21 -10z m205 -30 c3 -5 1 -10 -4 -10 -6 0 -11 5 -11
10 0 6 2 10 4 10 3 0 8 -4 11 -10z m-488 -6 c-3 -3 -12 -4 -19 -1 -8 3 -5 6 6
6 11 1 17 -2 13 -5z m790 0 c-3 -3 -12 -4 -19 -1 -8 3 -5 6 6 6 11 1 17 -2 13
-5z m50 -26 c-3 -8 -6 -5 -6 6 -1 11 2 17 5 13 3 -3 4 -12 1 -19z m-42 2 c3
-5 1 -10 -4 -10 -6 0 -11 5 -11 10 0 6 2 10 4 10 3 0 8 -4 11 -10z m390 1 c-6
-5 -28 -6 -50 -1 l-40 8 50 1 c29 1 45 -3 40 -8z m805 -1 c0 -5 -4 -10 -10
-10 -5 0 -10 5 -10 10 0 6 5 10 10 10 6 0 10 -4 10 -10z m-1233 -22 c-3 -8 -6
-5 -6 6 -1 11 2 17 5 13 3 -3 4 -12 1 -19z m-113 -9 c-3 -5 -10 -7 -15 -3 -5
3 -7 10 -3 15 3 5 10 7 15 3 5 -3 7 -10 3 -15z m-127 5 c-3 -3 -12 -4 -19 -1
-8 3 -5 6 6 6 11 1 17 -2 13 -5z m583 2 c0 -3 -4 -8 -10 -11 -5 -3 -10 -1 -10
4 0 6 5 11 10 11 6 0 10 -2 10 -4z m110 -15 c0 -5 -11 -11 -25 -13 -26 -5 -35
6 -12 15 20 9 37 8 37 -2z m850 -17 c0 -2 -7 -4 -15 -4 -8 0 -15 4 -15 10 0 5
7 7 15 4 8 -4 15 -8 15 -10z m-937 -1 c-7 -2 -19 -2 -25 0 -7 3 -2 5 12 5 14
0 19 -2 13 -5z m230 0 c-7 -2 -19 -2 -25 0 -7 3 -2 5 12 5 14 0 19 -2 13 -5z
m1779 -14 c17 -9 18 -13 7 -20 -21 -13 -26 -11 -32 11 -6 23 -3 24 25 9z
m-1779 -6 c-7 -2 -19 -2 -25 0 -7 3 -2 5 12 5 14 0 19 -2 13 -5z m617 -14 c0
-5 -4 -9 -10 -9 -5 0 -10 7 -10 16 0 8 5 12 10 9 6 -3 10 -10 10 -16z m2040
11 c0 -5 -10 -10 -22 -10 -19 0 -20 2 -8 10 19 13 30 13 30 0z m-1990 -10 c0
-5 -2 -10 -4 -10 -3 0 -8 5 -11 10 -3 6 -1 10 4 10 6 0 11 -4 11 -10z m2340 0
c0 -5 -7 -10 -15 -10 -8 0 -15 5 -15 10 0 6 7 10 15 10 8 0 15 -4 15 -10z m80
-10 c0 -10 8 -24 18 -29 11 -7 12 -10 4 -11 -14 0 -51 38 -52 53 0 4 7 7 15 7
8 0 15 -9 15 -20z m-1845 5 c-23 -8 -83 -10 -79 -3 3 4 24 8 47 7 23 0 38 -2
32 -4z m1395 -41 c0 -2 -24 -3 -52 -3 -52 2 -53 2 -13 8 37 6 65 4 65 -5z
m140 6 c0 -5 -12 -10 -26 -10 -14 0 -23 4 -19 10 3 6 15 10 26 10 10 0 19 -4
19 -10z m-1050 -18 c0 -11 -7 -18 -20 -18 -20 0 -27 16 -13 29 13 13 33 7 33
-11z m324 4 c-4 -9 3 -16 18 -19 15 -3 10 -5 -14 -6 -40 -1 -49 11 -20 28 22
13 22 13 16 -3z m1010 8 c17 -7 22 -34 6 -34 -5 0 -10 7 -10 15 0 8 -4 15 -10
15 -5 0 -10 -7 -10 -15 0 -8 -4 -15 -10 -15 -11 0 -14 23 -3 33 8 9 17 9 37 1z
m321 -14 c-16 -11 -36 -20 -42 -20 -7 0 -13 -4 -13 -10 0 -5 -9 -10 -21 -10
-17 0 -18 2 -7 13 17 16 79 46 98 46 8 1 2 -8 -15 -19z m665 10 c0 -5 -7 -7
-15 -4 -8 4 -15 8 -15 10 0 2 7 4 15 4 8 0 15 -4 15 -10z m-2500 -4 c0 -3 -4
-8 -10 -11 -5 -3 -10 -1 -10 4 0 6 5 11 10 11 6 0 10 -2 10 -4z m-128 -24 c-7
-2 -12 -10 -12 -18 0 -8 -9 -14 -20 -14 -11 0 -20 7 -20 15 0 8 9 15 20 15 11
0 20 5 20 11 0 5 5 7 12 3 9 -6 9 -9 0 -12z m888 8 c0 -5 -4 -10 -10 -10 -5 0
-10 5 -10 10 0 6 5 10 10 10 6 0 10 -4 10 -10z m327 4 c-3 -3 -12 -4 -19 -1
-8 3 -5 6 6 6 11 1 17 -2 13 -5z m1399 -14 c17 0 21 -5 17 -19 -7 -28 -31 -34
-43 -11 -6 11 -17 20 -25 20 -8 0 -15 4 -15 9 0 13 23 20 35 10 5 -5 19 -9 31
-9z m-1883 -11 c5 -3 2 -9 -7 -12 -12 -5 -16 0 -16 15 0 12 3 17 8 12 4 -5 11
-12 15 -15z m1997 17 c0 -3 -4 -8 -10 -11 -5 -3 -10 -1 -10 4 0 6 5 11 10 11
6 0 10 -2 10 -4z m168 -16 c-8 -13 -24 -20 -43 -20 -23 0 -27 3 -15 10 8 5 23
10 33 10 9 0 17 5 17 10 0 6 5 10 10 10 6 0 5 -8 -2 -20z m-1148 -5 c0 -9 -6
-12 -15 -9 -8 4 -12 10 -9 15 8 14 24 10 24 -6z m673 -7 c8 -30 0 -36 -18 -12
-18 24 -19 34 -1 34 7 0 16 -10 19 -22z m-1230 -8 c4 -17 0 -20 -24 -20 -22 0
-29 5 -29 20 0 14 7 20 24 20 15 0 26 -7 29 -20z m614 -2 c-3 -8 -6 -5 -6 6
-1 11 2 17 5 13 3 -3 4 -12 1 -19z m388 2 c18 -20 17 -20 -8 -20 -20 0 -24 4
-20 20 3 11 6 20 8 20 1 0 10 -9 20 -20z m828 13 c-7 -2 -19 -2 -25 0 -7 3 -2
5 12 5 14 0 19 -2 13 -5z m-1383 -18 c0 -8 -4 -15 -10 -15 -5 0 -10 7 -10 15
0 8 5 15 10 15 6 0 10 -7 10 -15z m34 0 c3 -8 1 -15 -4 -15 -6 0 -10 7 -10 15
0 8 2 15 4 15 2 0 6 -7 10 -15z m96 0 c0 -8 -4 -15 -10 -15 -5 0 -7 7 -4 15 4
8 8 15 10 15 2 0 4 -7 4 -15z m170 5 c0 -5 -6 -10 -14 -10 -12 0 -26 -25 -30
-55 -2 -14 -36 -19 -36 -6 0 6 9 19 20 29 l21 17 -23 7 c-21 6 -21 6 5 7 15 1
27 6 27 11 0 6 7 10 15 10 8 0 15 -4 15 -10z m818 -34 c4 -21 -14 -21 -22 0
-3 8 -10 12 -16 9 -5 -3 -10 1 -10 9 0 21 44 5 48 -18z m-79 5 c19 -12 -4 -24
-30 -16 -17 6 -19 9 -8 16 17 11 21 11 38 0z m1441 0 c0 -6 -4 -13 -10 -16 -5
-3 -10 1 -10 9 0 9 5 16 10 16 6 0 10 -4 10 -9z m50 -11 c0 -5 -4 -10 -10 -10
-5 0 -10 5 -10 10 0 6 5 10 10 10 6 0 10 -4 10 -10z m-360 -20 c0 -5 -4 -10
-10 -10 -5 0 -10 5 -10 10 0 6 5 10 10 10 6 0 10 -4 10 -10z m-220 -15 c0 -8
-6 -15 -14 -15 -17 0 -28 14 -19 24 12 12 33 6 33 -9z m380 5 c0 -5 -7 -10
-16 -10 -8 0 -12 5 -9 10 3 6 10 10 16 10 5 0 9 -4 9 -10z m-176 -37 c18 -4
31 -1 37 8 6 10 9 6 9 -14 0 -27 -1 -28 -50 -24 -52 4 -76 16 -51 25 11 4 11
6 0 14 -10 7 -9 8 6 3 11 -3 33 -9 49 -12z m436 -93 c0 -5 -5 -10 -11 -10 -5
0 -7 5 -4 10 3 6 8 10 11 10 2 0 4 -4 4 -10z"/>
<path d="M448 9003 c7 -3 16 -2 19 1 4 3 -2 6 -13 5 -11 0 -14 -3 -6 -6z"/>
<path d="M120 8954 c0 -9 7 -14 17 -12 25 5 28 28 4 28 -12 0 -21 -6 -21 -16z"/>
<path d="M23 8946 c-13 -6 -23 -17 -23 -24 0 -7 5 -10 11 -6 7 4 26 7 42 8 18
1 32 7 34 16 4 13 3 13 -6 0 -9 -12 -11 -12 -17 3 -7 19 -10 19 -41 3z"/>
<path d="M970 8940 c0 -21 24 -27 50 -10 17 11 13 15 -22 24 -24 5 -28 3 -28
-14z"/>
<path d="M706 8923 c10 -40 14 -41 14 -5 0 18 -5 32 -10 32 -6 0 -8 -11 -4
-27z"/>
<path d="M100 8916 c0 -9 5 -16 10 -16 6 0 10 4 10 9 0 6 -4 13 -10 16 -5 3
-10 -1 -10 -9z"/>
<path d="M270 8890 c0 -22 5 -40 10 -40 6 0 10 12 10 26 0 18 4 24 13 21 7 -3
19 4 25 14 14 21 3 25 -17 7 -11 -10 -14 -10 -18 0 -10 26 -23 10 -23 -28z"/>
<path d="M461 8914 c0 -11 3 -14 6 -6 3 7 2 16 -1 19 -3 4 -6 -2 -5 -13z"/>
<path d="M508 8923 c7 -3 16 -2 19 1 4 3 -2 6 -13 5 -11 0 -14 -3 -6 -6z"/>
<path d="M1480 8920 c0 -5 -9 -10 -20 -10 -17 0 -19 -3 -12 -17 11 -18 5 -27
-38 -56 -22 -15 -23 -17 -4 -17 11 0 28 10 38 21 13 16 21 18 29 10 6 -6 20
-11 31 -11 18 0 18 1 -2 19 -27 22 -28 39 -4 57 16 13 16 13 0 14 -10 0 -18
-4 -18 -10z"/>
<path d="M146 8911 c-4 -7 -5 -15 -2 -18 9 -9 19 4 14 18 -4 11 -6 11 -12 0z"/>
<path d="M500 8899 c0 -6 75 -19 106 -19 8 0 14 7 14 15 0 12 -12 15 -60 13
-33 -2 -60 -6 -60 -9z"/>
<path d="M800 8891 c0 -6 14 -11 31 -11 23 0 30 -4 25 -15 -6 -18 29 -41 39
-25 3 5 1 10 -4 10 -6 0 -11 7 -11 15 0 20 46 20 58 -1 8 -15 10 -15 15 0 9
22 -4 27 -83 32 -46 3 -70 1 -70 -5z"/>
<path d="M1178 8893 c7 -3 16 -2 19 1 4 3 -2 6 -13 5 -11 0 -14 -3 -6 -6z"/>
<path d="M433 8875 c-8 -22 6 -33 17 -15 13 20 12 30 0 30 -6 0 -13 -7 -17
-15z"/>
<path d="M401 8868 c-1 -21 -27 -24 -34 -5 -4 9 -6 9 -6 -1 -1 -17 28 -27 41
-14 6 6 8 16 5 24 -4 9 -6 7 -6 -4z"/>
<path d="M523 8873 c-20 -7 11 -33 39 -32 13 0 17 3 11 6 -7 2 -13 11 -13 19
0 14 -14 17 -37 7z"/>
<path d="M1130 8870 c0 -5 17 -10 38 -9 30 0 33 2 17 9 -28 12 -55 12 -55 0z"/>
<path d="M1338 8870 c12 -5 22 -14 22 -20 0 -6 5 -8 10 -5 17 10 -9 35 -34 34
-21 0 -21 0 2 -9z"/>
<path d="M988 8863 c7 -3 16 -2 19 1 4 3 -2 6 -13 5 -11 0 -14 -3 -6 -6z"/>
<path d="M800 8850 c0 -5 10 -10 23 -10 18 0 19 2 7 10 -19 13 -30 13 -30 0z"/>
<path d="M2297 8854 c-8 -8 1 -24 14 -24 5 0 9 7 9 15 0 15 -12 20 -23 9z"/>
<path d="M653 8839 c11 -7 23 -7 35 0 14 9 11 10 -18 10 -29 0 -32 -1 -17 -10z"/>
<path d="M1978 8838 c9 -9 15 -9 24 0 9 9 7 12 -12 12 -19 0 -21 -3 -12 -12z"/>
<path d="M2333 8821 c-4 -3 -9 -14 -11 -23 -2 -14 4 -18 24 -18 19 0 25 4 20
15 -4 10 1 15 14 15 13 0 18 -5 14 -15 -5 -11 1 -15 20 -15 16 0 26 6 26 15 0
8 -9 15 -20 15 -11 0 -20 3 -20 8 0 9 -55 12 -67 3z"/>
<path d="M1705 8800 c-3 -5 3 -10 14 -10 12 0 21 5 21 10 0 6 -6 10 -14 10 -8
0 -18 -4 -21 -10z"/>
<path d="M1638 8783 c7 -3 16 -2 19 1 4 3 -2 6 -13 5 -11 0 -14 -3 -6 -6z"/>
<path d="M2160 8776 c0 -7 16 -10 46 -8 54 5 53 7 -3 15 -29 3 -43 1 -43 -7z"/>
<path d="M3960 8745 c-10 -12 -10 -18 0 -30 15 -18 30 -11 30 15 0 26 -15 33
-30 15z"/>
<path d="M2654 8734 c3 -9 6 -19 6 -24 0 -12 28 -20 45 -14 8 4 15 12 15 20 0
8 -6 11 -15 8 -8 -4 -17 1 -21 10 -3 9 -13 16 -21 16 -10 0 -13 -6 -9 -16z"/>
<path d="M3040 8740 c0 -5 15 -10 33 -10 24 0 28 3 17 10 -20 13 -50 13 -50 0z"/>
<path d="M3280 8740 c0 -5 9 -10 20 -10 11 0 20 5 20 10 0 6 -9 10 -20 10 -11
0 -20 -4 -20 -10z"/>
<path d="M2578 8718 c-23 -23 -23 -28 2 -28 11 0 20 4 20 9 0 5 9 11 20 13 19
3 19 4 -3 13 -17 8 -26 7 -39 -7z"/>
<path d="M2968 8733 c6 -2 18 -2 25 0 6 3 1 5 -13 5 -14 0 -19 -2 -12 -5z"/>
<path d="M1755 8711 c-6 -11 9 -23 19 -14 9 9 7 23 -3 23 -6 0 -12 -4 -16 -9z"/>
<path d="M3330 8710 c-14 -4 -20 -9 -15 -9 6 -1 3 -6 -5 -11 -13 -8 -13 -10 1
-10 9 0 24 9 34 20 10 11 16 20 14 19 -2 -1 -15 -5 -29 -9z"/>
<path d="M3921 8683 c0 -25 1 -26 9 -8 12 27 12 35 0 35 -5 0 -10 -12 -9 -27z"/>
<path d="M2640 8690 c0 -6 7 -10 15 -10 8 0 15 2 15 4 0 2 -7 6 -15 10 -8 3
-15 1 -15 -4z"/>
<path d="M3848 8683 c7 -3 16 -2 19 1 4 3 -2 6 -13 5 -11 0 -14 -3 -6 -6z"/>
<path d="M3960 8677 c0 -21 12 -28 27 -16 19 16 16 29 -7 29 -11 0 -20 -6 -20
-13z"/>
<path d="M3840 8634 c0 -8 5 -12 10 -9 6 4 8 11 5 16 -9 14 -15 11 -15 -7z"/>
<path d="M4570 8635 c0 -8 5 -15 10 -15 6 0 10 7 10 15 0 8 -4 15 -10 15 -5 0
-10 -7 -10 -15z"/>
<path d="M4610 8635 c0 -8 5 -15 10 -15 6 0 10 7 10 15 0 8 -4 15 -10 15 -5 0
-10 -7 -10 -15z"/>
<path d="M4640 8635 c0 -8 9 -15 20 -15 11 0 20 2 20 5 0 2 -9 9 -20 15 -16 9
-20 8 -20 -5z"/>
<path d="M5175 8630 c-3 -5 -1 -10 4 -10 6 0 11 5 11 10 0 6 -2 10 -4 10 -3 0
-8 -4 -11 -10z"/>
<path d="M3463 8603 c9 -2 23 -2 30 0 6 3 -1 5 -18 5 -16 0 -22 -2 -12 -5z"/>
<path d="M4493 8603 c9 -2 23 -2 30 0 6 3 -1 5 -18 5 -16 0 -22 -2 -12 -5z"/>
<path d="M5495 8600 c3 -5 1 -10 -4 -10 -6 0 -11 -8 -11 -17 1 -17 1 -17 11 0
6 10 20 22 32 27 20 8 20 9 -6 9 -16 1 -26 -3 -22 -9z"/>
<path d="M6257 8590 c6 -24 19 -26 27 -4 9 23 8 24 -13 24 -14 0 -18 -5 -14
-20z"/>
<path d="M6448 8603 c7 -3 16 -2 19 1 4 3 -2 6 -13 5 -11 0 -14 -3 -6 -6z"/>
<path d="M4160 8580 c0 -6 7 -10 15 -10 8 0 15 2 15 4 0 2 -7 6 -15 10 -8 3
-15 1 -15 -4z"/>
<path d="M6665 8580 c-4 -6 5 -10 20 -10 15 0 24 4 20 10 -3 6 -12 10 -20 10
-8 0 -17 -4 -20 -10z"/>
<path d="M5530 8570 c-12 -8 -11 -10 8 -10 12 0 22 5 22 10 0 13 -11 13 -30 0z"/>
<path d="M5635 8570 c3 -5 10 -10 16 -10 5 0 9 5 9 10 0 6 -7 10 -16 10 -8 0
-12 -4 -9 -10z"/>
<path d="M6080 8565 c0 -18 -76 -21 -82 -3 -3 8 -11 9 -24 3 -18 -8 -18 -9 4
-12 12 -3 22 -7 22 -11 0 -4 18 -7 40 -7 22 0 40 3 40 8 0 4 15 7 33 7 30 1
31 1 13 15 -25 19 -46 19 -46 0z"/>
<path d="M6328 8573 c7 -3 16 -2 19 1 4 3 -2 6 -13 5 -11 0 -14 -3 -6 -6z"/>
<path d="M8143 8568 c1 -7 -7 -13 -18 -14 -66 -3 -66 -4 -53 -17 9 -11 19 -11
41 -3 22 9 30 8 37 -4 7 -11 10 -7 10 18 0 17 -4 32 -10 32 -5 0 -9 -6 -7 -12z"/>
<path d="M7201 8553 c0 -13 5 -23 12 -23 8 0 7 -4 -3 -10 -18 -12 -2 -12 25 0
20 9 19 9 -2 15 -12 4 -24 14 -26 24 -3 11 -5 9 -6 -6z"/>
<path d="M7680 8560 c0 -5 7 -10 15 -10 8 0 15 -9 15 -19 0 -28 19 -36 38 -17
10 9 12 16 5 16 -6 0 -15 9 -18 20 -7 21 -55 29 -55 10z"/>
<path d="M7920 8557 c0 -7 6 -19 13 -26 10 -11 10 -14 0 -18 -18 -6 -16 -23 2
-23 8 0 15 6 15 14 0 14 27 29 39 22 4 -3 8 6 9 20 2 22 -2 24 -38 24 -26 0
-40 -5 -40 -13z"/>
<path d="M4195 8550 c-17 -7 -15 -9 13 -9 17 -1 32 4 32 9 0 12 -17 12 -45 0z"/>
<path d="M4338 8543 c7 -3 16 -2 19 1 4 3 -2 6 -13 5 -11 0 -14 -3 -6 -6z"/>
<path d="M5868 8543 c7 -3 16 -2 19 1 4 3 -2 6 -13 5 -11 0 -14 -3 -6 -6z"/>
<path d="M6448 8543 c7 -3 16 -2 19 1 4 3 -2 6 -13 5 -11 0 -14 -3 -6 -6z"/>
<path d="M6815 8536 c-18 -13 -18 -14 8 -9 15 3 27 9 27 14 0 13 -13 11 -35
-5z"/>
<path d="M7425 8540 c-3 -5 -1 -10 4 -10 6 0 11 5 11 10 0 6 -2 10 -4 10 -3 0
-8 -4 -11 -10z"/>
<path d="M7048 8533 c7 -3 16 -2 19 1 4 3 -2 6 -13 5 -11 0 -14 -3 -6 -6z"/>
<path d="M3808 8523 c7 -3 16 -2 19 1 4 3 -2 6 -13 5 -11 0 -14 -3 -6 -6z"/>
<path d="M4625 8520 c3 -5 8 -10 11 -10 2 0 4 5 4 10 0 6 -5 10 -11 10 -5 0
-7 -4 -4 -10z"/>
<path d="M5798 8523 c7 -3 16 -2 19 1 4 3 -2 6 -13 5 -11 0 -14 -3 -6 -6z"/>
<path d="M6738 8523 c7 -3 16 -2 19 1 4 3 -2 6 -13 5 -11 0 -14 -3 -6 -6z"/>
<path d="M7298 8523 c6 -2 18 -2 25 0 6 3 1 5 -13 5 -14 0 -19 -2 -12 -5z"/>
<path d="M7633 8523 c9 -2 23 -2 30 0 6 3 -1 5 -18 5 -16 0 -22 -2 -12 -5z"/>
<path d="M8337 8490 c3 -11 13 -20 23 -20 10 0 20 9 23 20 4 16 0 20 -23 20
-23 0 -27 -4 -23 -20z"/>
<path d="M8290 8490 c0 -5 7 -10 15 -10 8 0 15 5 15 10 0 6 -7 10 -15 10 -8 0
-15 -4 -15 -10z"/>
<path d="M6620 8470 c-13 -8 -12 -10 3 -10 9 0 17 5 17 10 0 12 -1 12 -20 0z"/>
<path d="M7340 8465 c0 -8 5 -15 10 -15 6 0 10 7 10 15 0 8 -4 15 -10 15 -5 0
-10 -7 -10 -15z"/>
<path d="M8545 8470 c-18 -8 -17 -9 8 -9 15 -1 27 4 27 9 0 12 -8 12 -35 0z"/>
<path d="M9035 8411 c-1 -36 0 -38 13 -20 7 10 10 28 7 39 -10 32 -20 23 -20
-19z"/>
<path d="M8720 8420 c0 -5 5 -10 11 -10 5 0 7 5 4 10 -3 6 -8 10 -11 10 -2 0
-4 -4 -4 -10z"/>
<path d="M3149 7505 c-4 -3 -16 -8 -28 -10 -26 -6 -21 -5 -216 -54 -88 -23
-161 -45 -163 -51 -2 -6 -7 -8 -12 -5 -7 4 -185 -39 -470 -116 -63 -17 -191
-51 -285 -75 -93 -24 -190 -51 -215 -58 -25 -8 -171 -47 -325 -87 -154 -40
-354 -92 -445 -116 -91 -24 -266 -70 -390 -102 -124 -32 -297 -77 -385 -100
-88 -23 -172 -46 -188 -52 -37 -16 -35 -33 4 -25 17 3 38 6 46 6 8 0 11 5 7
12 -4 6 -3 8 4 4 9 -5 77 7 122 22 8 3 20 6 25 8 6 1 37 10 70 19 33 9 110 29
170 45 110 28 247 65 360 95 160 44 253 68 285 75 46 10 331 86 395 105 28 8
64 17 80 21 17 3 91 23 165 44 126 35 741 199 910 241 41 11 104 28 140 39
280 82 379 99 444 74 14 -5 17 -3 14 7 -2 7 -20 17 -39 22 -19 4 -43 10 -54
13 -11 3 -23 3 -26 -1z"/>
<path d="M3284 7459 c-4 -7 3 -10 17 -8 13 1 41 -5 61 -14 22 -10 50 -15 70
-12 27 4 29 4 13 -5 -16 -8 -13 -9 14 -4 19 4 31 2 28 -3 -8 -12 156 -55 179
-46 11 4 15 3 11 -4 -8 -13 86 -38 109 -29 8 3 12 2 9 -4 -3 -6 -2 -10 4 -10
5 0 18 -3 28 -6 15 -5 15 -4 3 5 -8 6 -11 11 -6 11 5 0 17 -6 25 -14 14 -11
315 -91 376 -99 11 -1 26 -6 33 -10 7 -5 22 -5 33 -2 14 5 19 3 15 -3 -4 -6 2
-11 11 -11 29 -1 58 -6 70 -14 6 -4 19 -4 29 0 12 4 15 3 10 -6 -5 -8 -3 -11
5 -10 8 1 21 -1 29 -4 36 -14 101 -27 110 -22 6 3 10 2 10 -3 0 -10 98 -34
110 -27 5 3 10 1 12 -5 4 -12 143 -44 188 -42 19 0 29 -2 22 -7 -16 -9 162
-53 184 -44 10 4 15 2 11 -4 -4 -5 113 -38 291 -81 478 -115 512 -123 525
-116 7 4 8 3 4 -2 -7 -7 89 -33 213 -59 14 -3 60 -14 103 -26 43 -11 81 -18
85 -15 12 13 -17 28 -56 29 -22 1 -38 5 -37 8 2 3 -114 34 -258 68 -144 35
-417 101 -606 147 -189 47 -350 83 -358 80 -8 -3 -12 -2 -9 3 3 4 -18 13 -47
20 -29 6 -61 13 -72 16 -11 2 -74 18 -139 35 -65 17 -125 29 -133 26 -8 -3
-12 -2 -9 3 7 10 -371 104 -391 97 -8 -3 -11 -1 -8 4 3 6 3 10 0 10 -4 0 -203
50 -443 110 -240 61 -445 110 -454 110 -9 0 -20 -5 -24 -11z m133 -25 c-3 -3
-12 -4 -19 -1 -8 3 -5 6 6 6 11 1 17 -2 13 -5z m200 -50 c-3 -3 -12 -4 -19 -1
-8 3 -5 6 6 6 11 1 17 -2 13 -5z m390 -100 c-3 -3 -12 -4 -19 -1 -8 3 -5 6 6
6 11 1 17 -2 13 -5z m1400 -350 c-3 -3 -12 -4 -19 -1 -8 3 -5 6 6 6 11 1 17
-2 13 -5z"/>
<path d="M2265 6941 c-9 -16 3 -31 26 -31 14 0 19 6 17 17 -4 20 -33 29 -43
14z"/>
<path d="M3593 6934 c-7 -19 11 -39 26 -30 16 10 13 33 -4 40 -9 3 -18 -1 -22
-10z"/>
<path d="M3990 6931 c0 -15 6 -21 21 -21 25 0 22 33 -4 38 -12 2 -17 -3 -17
-17z"/>
<path d="M2595 6871 c-16 -3 -30 -13 -30 -20 0 -16 50 -34 75 -28 17 4 18 1
23 -113 5 -110 5 -110 26 -110 28 0 33 27 21 110 -14 96 -9 108 42 112 23 2
43 9 46 16 10 31 -116 52 -203 33z"/>
<path d="M3989 6858 c-8 -15 -8 -26 0 -42 7 -12 11 -52 9 -91 -3 -63 -5 -70
-24 -73 -15 -2 -23 4 -27 18 -7 28 -27 16 -27 -15 0 -27 26 -45 64 -45 28 0
43 15 24 23 -9 4 -7 11 8 24 11 10 20 25 19 33 -1 8 -3 52 -3 96 -2 62 -6 83
-17 88 -9 3 -19 -3 -26 -16z"/>
<path d="M4155 6857 c-8 -13 -20 -50 -26 -82 -6 -33 -18 -76 -26 -97 -12 -31
-13 -41 -3 -53 20 -24 38 -17 50 20 12 37 39 58 57 47 5 -4 18 -22 27 -39 10
-21 24 -33 36 -33 29 0 26 44 -12 151 -24 71 -36 93 -55 100 -32 12 -30 12
-48 -14z m50 -38 c12 -19 15 -89 4 -89 -6 0 -7 5 -4 10 3 6 -3 10 -14 10 -17
0 -21 6 -21 33 0 44 19 63 35 36z"/>
<path d="M2067 6856 c-3 -8 -3 -63 0 -122 8 -133 16 -144 103 -144 53 0 60 2
60 20 0 17 -7 20 -45 20 -59 0 -66 15 -61 127 2 52 0 93 -6 101 -14 16 -45 15
-51 -2z"/>
<path d="M2262 6810 c2 -50 7 -63 25 -76 22 -14 23 -13 23 17 0 24 -4 30 -15
25 -9 -3 -15 0 -15 10 0 8 5 12 10 9 14 -9 13 48 -2 63 -23 23 -29 12 -26 -48z"/>
<path d="M2418 6859 c-51 -19 -40 -88 23 -138 40 -33 50 -66 27 -89 -19 -19
-45 -14 -66 13 -25 31 -32 31 -32 1 0 -31 34 -56 78 -56 72 0 114 107 57 144
-14 9 -25 13 -25 9 0 -3 -11 4 -25 17 -50 47 -14 97 49 68 34 -15 44 -4 21 22
-20 22 -62 25 -107 9z"/>
<path d="M3077 6852 c-33 -36 -19 -74 43 -117 37 -25 41 -32 38 -64 -4 -50
-37 -54 -79 -11 -20 20 -35 28 -41 22 -27 -27 41 -92 96 -92 38 0 76 41 76 81
0 27 -10 42 -51 80 -71 66 -58 98 28 67 36 -13 47 -9 38 14 -15 38 -119 52
-148 20z"/>
<path d="M3594 6844 c-6 -25 12 -223 21 -232 2 -2 12 -2 21 2 15 6 16 19 11
115 -4 59 -9 115 -13 124 -9 26 -33 20 -40 -9z"/>
<path d="M3731 6851 c-15 -15 -19 -28 -14 -56 5 -31 3 -37 -16 -42 -27 -7 -27
-23 -1 -30 20 -5 27 -22 32 -78 3 -28 6 -30 49 -33 38 -2 52 2 75 21 24 21 28
33 32 91 5 77 -9 119 -44 135 -39 17 -92 13 -113 -8z m103 -37 c39 -38 30
-138 -15 -163 -39 -22 -59 -9 -59 38 0 31 4 40 21 44 22 6 18 27 -6 27 -17 0
-27 27 -20 51 8 24 57 26 79 3z"/>
<path d="M4522 6858 c-5 -7 -13 -34 -17 -60 -4 -28 -13 -48 -20 -48 -7 0 -25
18 -40 40 -31 44 -40 50 -30 20 3 -11 2 -20 -3 -20 -16 0 -23 31 -11 46 9 11
7 14 -9 14 -11 0 -23 -7 -26 -16 -10 -26 -7 -192 4 -199 6 -3 10 1 10 10 0 9
5 13 10 10 6 -4 10 18 10 59 0 36 4 66 9 66 5 0 24 -26 41 -57 18 -32 39 -66
48 -75 15 -18 32 -16 32 3 0 6 -4 8 -9 4 -5 -3 -12 -1 -16 5 -3 5 3 10 15 10
12 0 19 4 16 9 -3 5 1 43 10 86 15 74 14 105 -4 105 -5 0 -14 -6 -20 -12z"/>
<path d="M2833 6813 c-29 -69 -57 -179 -50 -197 12 -31 43 -18 60 25 14 35 19
40 43 37 22 -2 30 -10 36 -35 6 -23 15 -33 27 -33 41 0 38 117 -5 203 -22 42
-28 47 -58 47 -31 0 -35 -4 -53 -47z m77 -34 c16 -28 5 -49 -24 -49 -31 0 -38
12 -30 45 8 31 39 34 54 4z"/>
<path d="M3405 6830 c-19 -37 -33 -38 -61 -3 -30 38 -48 20 -68 -69 -24 -106
-19 -138 19 -138 2 0 13 20 24 45 22 49 42 57 65 23 14 -19 16 -19 22 -5 10
26 33 20 44 -10 18 -49 33 -73 46 -73 22 0 23 42 3 99 -41 114 -62 161 -70
161 -5 0 -15 -13 -24 -30z"/>
<path d="M2282 6685 c-7 -14 -12 -39 -12 -55 0 -25 4 -30 25 -30 24 0 26 2 19
38 -4 20 -10 45 -13 55 -6 16 -8 16 -19 -8z"/>
<path d="M6293 6393 c15 -2 37 -2 50 0 12 2 0 4 -28 4 -27 0 -38 -2 -22 -4z"/>
<path d="M5858 6383 c12 -2 30 -2 40 0 9 3 -1 5 -23 4 -22 0 -30 -2 -17 -4z"/>
<path d="M5958 6383 c23 -2 61 -2 85 0 23 2 4 4 -43 4 -47 0 -66 -2 -42 -4z"/>
<path d="M6135 6373 c3 -20 9 -20 75 1 l45 14 -62 1 c-53 1 -61 -1 -58 -16z"/>
<path d="M5473 6373 c37 -2 96 -2 130 0 34 2 4 3 -68 3 -71 0 -99 -1 -62 -3z"/>
<path d="M5058 6363 c28 -2 76 -2 105 0 28 2 5 3 -53 3 -58 0 -81 -1 -52 -3z"/>
<path d="M5243 6363 c9 -2 23 -2 30 0 6 3 -1 5 -18 5 -16 0 -22 -2 -12 -5z"/>
<path d="M4518 6353 c7 -3 16 -2 19 1 4 3 -2 6 -13 5 -11 0 -14 -3 -6 -6z"/>
<path d="M4583 6353 c9 -2 25 -2 35 0 9 3 1 5 -18 5 -19 0 -27 -2 -17 -5z"/>
<path d="M4688 6353 c29 -2 74 -2 100 0 26 2 2 3 -53 3 -55 0 -76 -1 -47 -3z"/>
<path d="M4158 6343 c45 -2 119 -2 165 0 45 1 8 3 -83 3 -91 0 -128 -2 -82 -3z"/>
<path d="M3712 6333 c37 -2 100 -2 140 0 40 1 10 3 -67 3 -77 0 -110 -1 -73
-3z"/>
<path d="M3938 6333 c6 -2 18 -2 25 0 6 3 1 5 -13 5 -14 0 -19 -2 -12 -5z"/>
<path d="M3273 6323 c43 -2 110 -2 150 0 40 1 5 3 -78 3 -82 0 -115 -2 -72 -3z"/>
<path d="M3508 6323 c6 -2 18 -2 25 0 6 3 1 5 -13 5 -14 0 -19 -2 -12 -5z"/>
<path d="M2608 6313 c6 -2 18 -2 25 0 6 3 1 5 -13 5 -14 0 -19 -2 -12 -5z"/>
<path d="M2763 6313 c59 -2 155 -2 215 0 59 1 10 3 -108 3 -118 0 -167 -2
-107 -3z"/>
<path d="M2093 6303 c76 -2 198 -2 270 0 73 1 11 3 -138 3 -148 0 -208 -2
-132 -3z"/>
<path d="M1228 6293 c61 -2 163 -2 225 0 61 1 11 3 -113 3 -124 0 -174 -2
-112 -3z"/>
<path d="M493 6283 c59 -2 154 -2 210 0 56 1 8 3 -108 3 -116 0 -161 -2 -102
-3z"/>
<path d="M0 3140 l0 -3140 561 0 c445 0 559 3 553 13 -6 9 -5 9 7 0 13 -10
850 -13 4032 -13 l4017 0 0 2519 c0 2006 -3 2521 -12 2525 -10 5 -10 7 -1 12
10 4 13 117 13 514 l0 509 -57 -6 c-32 -3 -61 -10 -64 -15 -3 -6 -9 -9 -13 -9
-3 1 -32 1 -63 1 -41 0 -54 -3 -43 -10 8 -5 11 -10 5 -10 -110 -4 -157 -9
-167 -18 -7 -5 -33 -14 -58 -20 l-45 -10 52 -1 c45 -1 52 -3 46 -18 -3 -10
-12 -23 -20 -30 -13 -10 -12 -13 6 -22 11 -6 28 -11 38 -11 15 0 16 -2 3 -10
-11 -7 0 -10 37 -10 30 0 53 5 55 12 3 8 9 8 23 1 18 -10 18 -11 -1 -16 -17
-5 -243 -21 -269 -19 -90 7 -246 2 -264 -7 -17 -10 -26 -10 -37 0 -11 9 -14 8
-14 -3 0 -17 -82 -17 -103 1 -8 6 -18 8 -21 3 -3 -5 -26 -10 -52 -10 -25 -1
-50 -5 -55 -8 -5 -3 -9 0 -9 6 0 8 -10 9 -29 5 -17 -3 -32 -2 -36 5 -3 5 -12
7 -18 3 -13 -9 -31 -10 -152 -13 -65 -1 -82 2 -92 16 -7 10 -13 14 -13 8 0 -5
-5 -1 -11 9 -13 23 -29 22 -29 -3 0 -26 -15 -25 -41 1 -20 20 -23 20 -31 5
-12 -20 -58 -22 -58 -1 0 9 -9 15 -21 15 -18 0 -19 -3 -9 -15 10 -12 9 -16 -3
-21 -21 -8 -37 3 -30 21 4 12 -5 15 -41 15 -44 0 -45 1 -34 20 10 16 10 24 0
40 -7 11 -8 20 -3 20 5 0 11 -6 14 -12 3 -10 12 -9 37 5 17 9 40 17 51 17 28
0 23 17 -7 24 -27 7 -58 -9 -48 -26 4 -5 -6 -9 -22 -7 -63 5 -86 -1 -91 -22
-5 -16 -11 -19 -34 -14 -23 5 -30 2 -42 -22 -8 -15 -12 -34 -10 -40 6 -16 -29
-17 -44 -2 -7 7 -17 7 -29 1 -11 -5 -50 -15 -88 -20 -56 -9 -71 -8 -83 4 -10
10 -20 11 -32 4 -10 -5 -47 -7 -82 -4 -35 4 -82 7 -103 8 -22 1 -41 7 -44 14
-2 7 -16 12 -30 12 -23 -1 -25 -2 -9 -11 9 -6 15 -14 12 -19 -8 -12 -227 -9
-243 3 -10 8 -16 8 -20 0 -8 -12 -92 -22 -92 -11 0 5 -7 8 -15 8 -8 0 -15 -4
-15 -9 0 -5 -28 -12 -62 -16 -62 -7 -88 -21 -88 -48 0 -12 -19 -27 -35 -27 -2
0 -6 24 -8 53 -3 28 -3 -69 -1 -218 2 -148 4 -307 4 -352 l0 -83 41 0 c23 0
47 -7 55 -15 17 -17 18 -16 -46 -19 -34 -1 -27 10 10 17 18 3 14 5 -14 6 l-38
1 3 -238 c5 -279 5 -278 -73 -268 -26 4 -56 2 -67 -3 -26 -15 -277 -21 -290
-8 -7 7 -18 7 -36 -1 -14 -7 -59 -12 -99 -12 l-73 0 -6 78 c-4 42 -11 253 -17
467 -6 215 -14 419 -17 455 -6 60 -7 63 -16 34 -9 -30 -13 -32 -73 -39 -35 -3
-68 -4 -74 0 -6 4 -10 -6 -10 -24 0 -17 -5 -31 -11 -31 -7 0 -10 17 -7 44 2
36 0 46 -14 50 -14 3 -18 -2 -18 -21 0 -19 -4 -23 -19 -18 -11 3 -22 1 -26 -5
-3 -6 -22 -17 -41 -25 -26 -11 -32 -18 -27 -32 6 -16 5 -16 -10 -4 -19 15 -24
14 -29 -11 -2 -10 13 -32 35 -52 40 -37 44 -58 11 -65 -16 -3 -17 -1 -4 13 11
15 11 17 -1 14 -8 -2 -15 7 -17 20 -2 13 -14 27 -28 33 -14 5 -23 13 -19 18 3
6 -7 6 -27 0 -45 -12 -48 -12 -42 9 5 16 5 16 -9 0 -19 -24 -24 -23 -31 7 -4
15 -13 25 -25 25 -10 0 -31 12 -46 26 -21 20 -35 25 -57 20 -15 -3 -28 -1 -28
4 0 6 -9 10 -20 10 -11 0 -20 -4 -20 -10 0 -5 -14 -7 -32 -4 -30 5 -31 4 -16
-9 16 -12 7 -16 -78 -38 l-96 -24 -34 37 c-19 22 -34 31 -34 23 0 -19 59 -85
76 -85 10 0 14 -14 14 -50 0 -46 -2 -50 -24 -50 -44 0 -41 -71 4 -93 20 -10
25 -21 27 -57 2 -36 8 -49 32 -70 40 -33 61 -95 68 -208 5 -74 3 -95 -9 -110
-9 -9 -19 -34 -22 -56 -6 -32 -4 -41 14 -53 27 -19 62 -100 55 -124 -5 -14 -1
-19 14 -19 12 0 21 -7 21 -15 0 -15 -13 -17 -114 -19 -22 -1 -49 4 -60 10 -16
8 -28 7 -51 -4 -35 -18 -34 -18 -230 -26 -82 -3 -188 -8 -235 -12 -132 -10
-188 -12 -445 -18 -133 -4 -258 -9 -278 -11 -87 -11 -289 -5 -305 10 -2 1 -7
90 -12 196 -5 107 -14 293 -20 414 -6 121 -15 305 -20 409 -5 105 -6 194 -3
199 4 7 -57 8 -168 4 -96 -4 -322 -9 -504 -13 -181 -3 -335 -7 -341 -9 -7 -2
-9 -15 -6 -30 l5 -27 166 6 c91 3 279 9 417 12 l251 7 7 -79 c3 -44 8 -163 12
-265 l5 -186 -108 -2 c-120 -2 -143 -12 -143 -63 0 -20 5 -28 18 -28 13 0 14
-2 4 -9 -10 -6 -10 -10 3 -21 11 -9 43 -11 125 -8 l110 6 -2 -32 c-1 -32 7
-218 17 -381 3 -49 2 -96 -3 -103 -6 -9 -77 -15 -273 -22 -145 -5 -324 -12
-397 -16 -110 -6 -136 -4 -143 7 -6 10 -9 6 -9 -13 0 -16 -5 -28 -11 -28 -5 0
-7 5 -4 10 3 6 1 10 -4 10 -6 0 -11 9 -11 21 0 11 -4 17 -10 14 -6 -4 -8 -15
-5 -25 8 -25 -4 -28 -187 -35 l-156 -7 -6 63 c-4 35 -11 145 -16 244 -13 264
-53 970 -54 971 -1 2 -553 -13 -862 -22 l-201 -6 5 -23 c2 -13 9 -25 16 -27 6
-2 115 0 241 3 127 4 321 7 432 8 l202 1 5 -52 c7 -64 14 -187 21 -366 6 -127
5 -133 -12 -123 -11 5 -62 7 -122 4 -93 -5 -104 -8 -118 -29 -16 -25 -12 -67
9 -91 16 -19 217 -18 244 1 20 14 20 14 15 -22 -4 -20 -3 -68 1 -107 3 -38 10
-147 14 -242 l7 -171 -64 -6 c-35 -3 -190 -11 -344 -17 -154 -6 -313 -14 -353
-18 -82 -8 -92 -1 -92 58 0 17 -9 113 -20 213 -11 101 -24 228 -29 283 l-10
100 5 -110 c3 -60 9 -177 14 -260 18 -288 18 -299 -5 -303 -15 -2 -16 -1 -7 6
11 7 11 10 -2 15 -10 4 -16 1 -16 -7 0 -19 -68 -33 -201 -42 -75 -4 -108 -3
-113 5 -5 8 -13 8 -26 1 -17 -9 -20 -6 -24 22 -9 52 -35 399 -41 553 -3 77
-15 271 -25 430 -20 298 -48 749 -52 842 l-3 53 -38 0 -37 0 0 -3140z m8886
2825 c-8 -8 -19 -15 -25 -15 -6 0 -8 7 -5 15 4 8 15 15 26 15 17 0 18 -2 4
-15z m-1511 -71 c49 -20 33 -36 -28 -28 -43 6 -55 19 -32 36 14 11 18 10 60
-8z m1462 0 c-3 -3 -12 -4 -19 -1 -8 3 -5 6 6 6 11 1 17 -2 13 -5z m-594 -75
c27 0 29 -2 12 -9 -17 -6 -14 -8 15 -12 l35 -5 -37 -1 c-21 -1 -38 3 -38 8 0
6 -26 11 -57 11 -52 1 -54 2 -23 9 19 4 41 6 48 4 8 -2 28 -4 45 -5z m-305 -6
c-10 -2 -18 -9 -18 -14 0 -5 -5 -9 -11 -9 -8 0 -8 5 1 15 7 8 20 14 29 14 13
-1 13 -2 -1 -6z m389 1 c-3 -3 -12 -4 -19 -1 -8 3 -5 6 6 6 11 1 17 -2 13 -5z
m73 2 c0 -2 -7 -7 -16 -10 -8 -3 -12 -2 -9 4 6 10 25 14 25 6z m222 -3 c-6 -2
-9 -9 -6 -15 9 -14 -163 -5 -177 9 -8 8 19 11 93 11 56 1 97 -2 90 -5z m-748
-22 c3 -5 -11 -9 -32 -9 -20 0 -50 -6 -66 -12 -22 -8 -32 -7 -44 2 -13 11 -7
14 39 19 88 9 98 9 103 0z m-217 -7 c-3 -3 -12 -4 -19 -1 -8 3 -5 6 6 6 11 1
17 -2 13 -5z m20 -30 c3 -9 -2 -23 -12 -32 -13 -13 -19 -14 -22 -4 -7 17 -23
15 -23 -3 0 -8 -4 -15 -10 -15 -5 0 -10 7 -10 15 0 11 -11 15 -42 14 l-43 -2
35 -6 c28 -5 32 -8 20 -16 -18 -12 -223 -15 -231 -3 -3 4 -19 2 -37 -4 -34
-13 -46 -9 -37 14 4 10 15 14 28 12 21 -4 21 -4 2 5 -32 15 -45 12 -45 -11 0
-21 -1 -21 -13 -3 -11 14 -22 17 -45 12 -41 -8 -41 -1 1 16 22 10 64 13 128
12 53 -2 102 1 110 6 8 5 65 9 127 9 93 0 114 -3 119 -16z m-1451 -21 c-2 -16
-5 -37 -6 -48 -2 -17 -3 -16 -10 5 -8 24 -8 24 -9 -7 -1 -17 -6 -35 -13 -39
-7 -4 -8 -3 -4 4 4 7 2 12 -3 12 -6 0 -11 7 -11 16 0 8 4 13 9 9 5 -3 11 7 13
22 2 16 8 27 16 26 6 -2 12 4 12 12 0 8 2 15 5 15 3 0 4 -12 1 -27z m-42 -8
c-4 -8 -8 -15 -10 -15 -2 0 -4 7 -4 15 0 8 4 15 10 15 5 0 7 -7 4 -15z m2580
-114 c16 -6 17 -9 6 -16 -9 -5 -15 -4 -18 3 -7 21 -25 13 -19 -8 3 -11 1 -23
-4 -26 -5 -3 -9 2 -9 11 0 12 -4 14 -19 5 -27 -14 -31 -13 -31 9 0 27 52 39
94 22z m-297 -27 c-3 -3 -12 -4 -19 -1 -8 3 -5 6 6 6 11 1 17 -2 13 -5z m40 0
c-3 -3 -12 -4 -19 -1 -8 3 -5 6 6 6 11 1 17 -2 13 -5z m153 -9 c0 -20 -28 -31
-42 -17 -10 10 8 23 40 31 1 1 2 -6 2 -14z m-3395 -6 c11 -16 1 -19 -13 -3 -7
8 -8 14 -3 14 5 0 13 -5 16 -11z m3082 5 c-3 -3 -12 -4 -19 -1 -8 3 -5 6 6 6
11 1 17 -2 13 -5z m-154 -11 c-7 -2 -19 -2 -25 0 -7 3 -2 5 12 5 14 0 19 -2
13 -5z m402 -25 c-3 -9 -17 -20 -31 -27 -32 -14 -34 -14 -34 2 0 7 15 20 33
29 36 18 40 17 32 -4z m-3242 -13 c-7 -21 -12 -19 -10 4 0 11 5 18 9 15 4 -3
5 -11 1 -19z m-68 -15 c1 -11 -2 -20 -7 -20 -4 0 -8 12 -8 27 0 30 13 24 15
-7z m2515 9 c0 -5 -4 -9 -10 -9 -5 0 -10 7 -10 16 0 8 5 12 10 9 6 -3 10 -10
10 -16z m-547 -9 c3 -11 1 -20 -4 -20 -5 0 -9 9 -9 20 0 11 2 20 4 20 2 0 6
-9 9 -20z m259 -30 c73 -22 118 -90 68 -103 -17 -4 -20 0 -20 25 0 16 -4 27
-8 24 -4 -3 -7 -39 -5 -80 3 -73 2 -76 -19 -77 -13 0 -34 -2 -46 -3 -13 -2
-26 3 -29 11 -3 7 -10 13 -15 13 -6 0 -6 -6 1 -14 11 -12 -2 -15 -87 -15 -55
0 -107 -4 -116 -7 -10 -4 -16 -1 -16 7 0 11 -3 11 -10 -1 -7 -10 -10 12 -10
72 0 47 -2 92 -5 100 -3 9 27 26 93 54 l97 41 50 -20 c28 -10 62 -23 77 -27z
m-2259 10 c18 -20 23 -36 19 -52 -5 -21 -6 -20 -14 9 -6 24 -12 31 -25 26 -10
-4 -14 -2 -9 5 3 6 -4 18 -16 26 -22 16 -22 16 -1 16 12 0 32 -13 46 -30z
m2042 21 c3 -5 1 -12 -5 -16 -5 -3 -10 1 -10 9 0 18 6 21 15 7z m-2295 -30 c0
-3 -8 -23 -19 -45 -10 -23 -23 -52 -29 -66 -9 -22 -11 -23 -11 -4 -1 11 -7 26
-13 33 -10 11 -10 13 0 7 6 -4 12 -4 12 1 0 13 -14 29 -35 41 -24 14 -1 16 24
2 14 -7 23 -4 37 12 11 12 13 18 7 14 -7 -4 -13 -3 -13 3 0 5 9 9 20 8 11 -1
20 -3 20 -6z m1187 -13 c-3 -8 -6 -5 -6 6 -1 11 2 17 5 13 3 -3 4 -12 1 -19z
m390 0 c-3 -8 -6 -5 -6 6 -1 11 2 17 5 13 3 -3 4 -12 1 -19z m153 7 c0 -8 -4
-15 -10 -15 -5 0 -10 7 -10 15 0 8 5 15 10 15 6 0 10 -7 10 -15z m-1430 -5 c0
-5 -4 -10 -10 -10 -5 0 -10 5 -10 10 0 6 5 10 10 10 6 0 10 -4 10 -10z m1320
-11 c0 -5 -4 -9 -10 -9 -5 0 -10 7 -10 16 0 8 5 12 10 9 6 -3 10 -10 10 -16z
m50 11 c0 -5 -4 -10 -10 -10 -5 0 -10 5 -10 10 0 6 5 10 10 10 6 0 10 -4 10
-10z m-1530 -31 c0 -6 -4 -7 -10 -4 -5 3 -10 11 -10 16 0 6 5 7 10 4 6 -3 10
-11 10 -16z m3230 1 c0 -11 -4 -20 -10 -20 -5 0 -10 9 -10 20 0 11 5 20 10 20
6 0 10 -9 10 -20z m-3040 -37 c0 -28 -3 -34 -16 -29 -14 5 -15 1 -10 -26 18
-85 18 -95 4 -101 -26 -9 -41 10 -42 52 -1 28 3 41 13 41 10 0 11 3 2 14 -7 9
-9 25 -5 42 15 61 54 66 54 7z m-100 8 c0 -5 8 -12 18 -15 10 -3 7 -4 -7 -3
-24 2 -44 27 -22 27 6 0 11 -4 11 -9z m-383 -17 c-3 -3 -12 -4 -19 -1 -8 3 -5
6 6 6 11 1 17 -2 13 -5z m-83 -144 c-6 -5 -24 21 -24 34 0 6 6 1 14 -10 8 -10
12 -21 10 -24z m2879 13 c-7 -2 -19 -2 -25 0 -7 3 -2 5 12 5 14 0 19 -2 13 -5z
m60 -10 c-7 -2 -19 -2 -25 0 -7 3 -2 5 12 5 14 0 19 -2 13 -5z m1337 -9 c0 -8
-4 -12 -10 -9 -5 3 -10 10 -10 16 0 5 5 9 10 9 6 0 10 -7 10 -16z m-1767 -31
c-7 -2 -21 -2 -30 0 -10 3 -4 5 12 5 17 0 24 -2 18 -5z m1145 -8 c5 -4 -189
-11 -243 -7 -11 0 -48 2 -83 2 -34 1 -65 6 -67 11 -6 9 384 3 393 -6z m640
-137 c7 -79 12 -162 12 -185 0 -39 -2 -43 -24 -43 -18 0 -25 7 -30 31 -9 45
-7 61 5 54 7 -5 8 37 3 139 -6 125 -5 146 8 146 11 0 17 -30 26 -142z m-300
126 c-11 -10 -128 -14 -128 -4 0 6 30 10 67 10 36 0 64 -3 61 -6z m85 -1 c-13
-2 -35 -2 -50 0 -16 2 -5 4 22 4 28 0 40 -2 28 -4z m-3456 -91 c59 -3 64 -5
93 -42 l31 -39 8 -198 c5 -109 7 -200 5 -202 -2 -2 -11 0 -21 4 -22 10 -65 6
-77 -6 -6 -5 -18 -9 -28 -9 -10 0 -18 -6 -18 -14 0 -14 -40 -22 -142 -30 -35
-3 -38 -1 -34 21 4 19 -2 26 -32 39 -29 12 -34 17 -22 24 11 7 -1 10 -40 12
-46 1 -48 2 -15 5 22 2 49 8 60 13 11 5 32 14 48 20 16 6 27 17 26 27 0 11 -3
13 -6 6 -6 -16 -43 -17 -43 -2 0 6 13 16 29 22 16 6 32 19 34 29 3 12 11 16
21 12 12 -4 16 -20 16 -58 1 -44 2 -49 14 -33 17 22 29 22 21 -2 -3 -10 -1
-29 4 -42 10 -24 10 -24 10 -1 1 12 6 22 12 22 5 0 9 8 7 18 -2 11 4 27 12 36
16 21 16 73 -1 154 -8 38 -14 51 -20 41 -5 -8 -9 -9 -9 -3 0 7 -14 26 -30 44
-17 18 -35 40 -40 49 -8 14 -9 13 -10 -4 0 -12 6 -27 13 -34 10 -11 8 -11 -10
-2 -32 16 -63 14 -63 -5 0 -27 -23 -9 -27 21 -3 16 -9 33 -16 37 -8 5 -7 11 3
22 7 9 15 14 17 12 3 -3 37 22 76 54 l72 58 5 -37 5 -36 62 -3z m-2640 50 c6
-4 11 -27 10 -52 -2 -45 -2 -45 -41 -48 -51 -4 -60 7 -52 62 7 44 9 46 39 46
18 0 37 -4 44 -8z m3726 -9 c-7 -2 -21 -2 -30 0 -10 3 -4 5 12 5 17 0 24 -2
18 -5z m662 -3 c16 -7 11 -9 -20 -9 -29 -1 -36 2 -25 9 17 11 19 11 45 0z m78
3 c-7 -2 -21 -2 -30 0 -10 3 -4 5 12 5 17 0 24 -2 18 -5z m100 0 c-7 -2 -19
-2 -25 0 -7 3 -2 5 12 5 14 0 19 -2 13 -5z m155 0 c-21 -2 -55 -2 -75 0 -21 2
-4 4 37 4 41 0 58 -2 38 -4z m-625 -10 c-23 -2 -64 -2 -90 0 -26 2 -7 3 42 3
50 0 71 -1 48 -3z m90 0 c-7 -2 -19 -2 -25 0 -7 3 -2 5 12 5 14 0 19 -2 13 -5z
m120 0 c-13 -2 -35 -2 -50 0 -16 2 -5 4 22 4 28 0 40 -2 28 -4z m-648 -13 c-3
-5 -18 -9 -33 -9 l-27 1 30 8 c17 4 31 8 33 9 2 0 0 -3 -3 -9z m98 3 c-7 -2
-21 -2 -30 0 -10 3 -4 5 12 5 17 0 24 -2 18 -5z m-273 -12 c0 -5 -7 -12 -16
-15 -24 -9 -28 -7 -14 9 14 17 30 20 30 6z m103 2 c-7 -2 -21 -2 -30 0 -10 3
-4 5 12 5 17 0 24 -2 18 -5z m-66 -9 c-3 -3 -12 -4 -19 -1 -8 3 -5 6 6 6 11 1
17 -2 13 -5z m-1176 -56 c10 0 19 -9 22 -24 2 -13 1 -24 -3 -24 -16 0 -74 29
-60 30 10 1 11 3 3 7 -7 2 -13 9 -13 15 0 6 7 7 18 3 9 -4 24 -7 33 -7z m4039
-8 c8 -16 6 -21 -12 -31 -20 -10 -21 -10 -12 2 6 8 10 22 9 32 -4 22 2 22 15
-3z m-7910 -20 c0 -5 -2 -10 -4 -10 -3 0 -8 5 -11 10 -3 6 -1 10 4 10 6 0 11
-4 11 -10z m7629 -6 c10 -9 -35 -3 -49 6 -11 8 -7 9 15 4 17 -4 32 -8 34 -10z
m-369 -14 c0 -5 -4 -10 -9 -10 -6 0 -13 5 -16 10 -3 6 1 10 9 10 9 0 16 -4 16
-10z m-2160 -46 c0 -12 -4 -14 -12 -7 -7 6 -20 13 -28 16 -9 3 -3 6 13 6 19 1
27 -4 27 -15z m285 6 c-3 -5 -10 -10 -16 -10 -5 0 -9 5 -9 10 0 6 7 10 16 10
8 0 12 -4 9 -10z m-1594 -32 c11 -21 11 -22 -4 -9 -10 7 -17 17 -17 22 0 15 9
10 21 -13z m1478 -44 c40 -20 30 -38 -19 -31 -35 4 -60 -6 -60 -25 0 -4 7 -8
15 -8 12 0 10 -5 -5 -20 -26 -26 -40 -18 -40 21 0 16 -4 29 -10 29 -5 0 -7 7
-4 15 5 12 15 14 40 9 33 -6 49 8 22 19 -7 3 -4 6 8 6 11 1 35 -6 53 -15z
m-1312 -26 c15 -6 34 -10 41 -9 6 1 12 -3 12 -9 0 -5 -18 -10 -40 -10 -22 0
-40 2 -40 4 0 2 -3 11 -6 20 -7 19 -4 20 33 4z m-19 -70 c8 -8 15 -8 27 2 8 7
18 11 20 8 3 -3 -1 -11 -10 -18 -16 -13 -65 -6 -65 10 0 13 13 13 28 -2z
m1502 -39 c0 -5 5 -7 10 -4 6 3 10 -1 10 -9 0 -21 -13 -20 -41 4 l-24 19 23 1
c12 0 22 -5 22 -11z m-1519 -17 c-7 -2 -18 1 -23 6 -8 8 -4 9 13 5 13 -4 18
-8 10 -11z m1499 -27 c-15 -18 1 -20 18 -3 9 9 12 8 12 -4 0 -19 -42 -48 -70
-48 -28 0 -25 9 12 42 34 30 48 37 28 13z m-1535 -65 c3 -5 -1 -10 -9 -10 -9
0 -16 5 -16 10 0 6 4 10 9 10 6 0 13 -4 16 -10z m1527 -32 c-7 -7 -12 -8 -12
-2 0 14 12 26 19 19 2 -3 -1 -11 -7 -17z m-1512 -8 c0 -11 5 -20 10 -20 6 0
10 -4 10 -10 0 -16 -50 -12 -66 5 -9 8 -11 15 -5 15 6 0 8 7 5 15 -5 11 1 15
20 15 19 0 26 -5 26 -20z m53 5 c10 -7 17 -22 15 -32 -4 -15 -7 -14 -18 9 -7
16 -18 24 -26 21 -8 -3 -14 0 -14 6 0 15 21 13 43 -4z m-133 -15 c0 -5 -2 -10
-4 -10 -3 0 -8 5 -11 10 -3 6 -1 10 4 10 6 0 11 -4 11 -10z m272 -187 c1 -82
0 -149 -4 -151 -12 -5 -10 -50 3 -74 8 -15 8 -26 -2 -44 -8 -16 -9 -31 -3 -46
11 -26 7 -68 -7 -68 -12 0 -12 -37 1 -45 13 -8 13 -65 1 -65 -5 0 -12 6 -14
13 -3 6 -6 1 -6 -13 0 -14 4 -32 9 -40 5 -8 10 -10 10 -5 0 6 5 3 10 -5 13
-21 13 -70 -1 -70 -11 0 -9 -16 5 -50 4 -11 -5 -20 -34 -33 -52 -22 -58 -22
-63 6 -4 20 -4 20 -4 -3 -1 -14 -2 -29 -3 -35 -4 -16 -19 66 -20 110 -2 35 -3
37 -10 15 -7 -20 -8 -17 -7 18 2 38 3 40 16 25 12 -16 12 -16 6 6 -6 18 -4 23
7 19 10 -4 13 2 10 28 -3 21 -8 31 -15 27 -7 -4 -8 0 -4 11 4 10 3 35 -3 55
-18 69 -34 508 -19 533 4 6 21 8 39 6 21 -3 34 0 37 9 3 7 18 13 33 13 l28 0
4 -147z m-198 5 c3 -62 8 -144 11 -183 3 -47 2 -62 -4 -45 -5 14 -10 61 -11
105 -2 77 -3 78 -12 35 -5 -25 -14 -119 -19 -210 -6 -91 -12 -178 -14 -195 -2
-16 -4 -43 -4 -58 -1 -20 -5 -26 -13 -21 -10 6 -10 4 0 -8 9 -12 10 -22 3 -35
-5 -10 -12 -26 -15 -35 -3 -10 -10 -18 -15 -18 -10 0 -5 90 7 120 3 8 6 33 7
55 1 22 10 127 20 234 18 185 18 194 1 206 -15 12 -16 20 -7 71 6 32 11 59 11
61 0 2 5 1 10 -2 6 -3 10 3 10 14 0 12 6 21 14 21 10 0 15 -28 20 -112z m-95
65 c0 -34 -1 -36 -11 -16 -6 12 -8 29 -5 37 11 27 17 18 16 -21z m-169 -56 c0
-6 6 -18 14 -26 8 -9 23 -47 35 -86 34 -117 24 -193 -55 -398 -70 -184 -83
-227 -66 -227 12 0 561 -437 703 -559 36 -31 38 -35 24 -51 -8 -9 -15 -21 -15
-26 0 -6 -13 -23 -28 -38 -26 -24 -30 -25 -42 -11 -7 9 -54 48 -104 88 -50 39
-84 63 -76 52 8 -10 37 -35 65 -56 27 -21 68 -53 90 -73 38 -32 39 -36 23 -52
-16 -16 -19 -15 -58 16 -26 21 -39 38 -35 48 3 8 -6 25 -20 40 -14 13 -25 21
-25 17 0 -4 -7 -2 -15 5 -11 9 -15 10 -15 1 0 -8 -8 -10 -20 -6 -14 5 -20 2
-20 -9 0 -9 -5 -16 -10 -16 -6 0 -9 10 -7 23 5 25 -11 92 -20 84 -7 -8 -88 39
-155 91 -42 32 -55 48 -46 54 10 6 5 15 -17 34 -46 39 -75 57 -81 51 -3 -3 8
-13 24 -22 16 -10 34 -27 42 -39 10 -16 6 -15 -17 6 -27 26 -31 27 -50 13 -21
-14 -21 -14 -17 9 2 13 -2 29 -11 36 -12 10 -15 10 -15 -3 0 -10 -6 -14 -15
-11 -8 4 -13 10 -10 14 3 4 -2 10 -9 13 -8 3 -17 1 -19 -6 -3 -9 -8 -8 -20 2
-21 17 -22 31 -2 31 17 0 20 16 5 25 -5 3 -10 0 -10 -7 0 -7 -9 2 -20 20 -11
17 -22 32 -25 32 -4 0 -3 -5 1 -11 3 -6 0 -15 -7 -20 -10 -6 -17 3 -26 34 -7
23 -10 50 -7 61 4 13 2 17 -7 14 -8 -3 -14 -13 -15 -24 -2 -38 -5 -38 -34 -5
-31 35 -37 51 -20 51 6 0 10 -4 10 -9 0 -5 10 -7 21 -4 21 6 20 6 -5 22 -39
24 -41 41 -3 42 18 1 46 5 62 9 17 5 -17 6 -81 3 l-112 -5 5 26 c3 15 1 26 -6
26 -17 0 -13 26 6 41 9 8 25 14 36 14 12 0 23 10 29 25 7 20 7 23 -3 13 -7 -7
-19 -13 -27 -13 -14 0 6 34 47 77 12 12 21 27 21 34 0 6 11 37 24 68 14 31 32
90 41 131 9 41 25 95 36 119 10 24 19 58 19 75 l-1 31 -14 -25 c-8 -14 -14
-20 -15 -15 0 6 7 20 15 32 8 12 16 31 18 44 3 15 11 23 26 24 12 1 28 10 36
21 13 18 14 18 8 -3 -8 -34 13 -28 25 7 8 21 16 28 26 24 9 -3 16 -11 16 -17z
m-3890 -8 c0 -7 15 -9 43 -6 23 3 51 2 62 -4 17 -8 15 -8 -8 -4 -15 3 -33 3
-39 -1 -6 -4 -52 -8 -102 -10 -50 -1 -156 -5 -236 -8 -99 -3 -134 -2 -110 4
56 15 99 21 200 28 171 12 190 12 190 1z m-515 -49 c-11 -5 -29 -9 -40 -9 -17
-1 -17 1 -5 9 8 5 26 9 40 9 23 0 23 -1 5 -9z m-87 -7 c-10 -2 -26 -2 -35 0
-10 3 -2 5 17 5 19 0 27 -2 18 -5z m4694 -67 c7 4 8 2 4 -4 -11 -18 -26 -14
-25 6 0 10 3 12 6 4 2 -6 10 -9 15 -6z m386 -131 c6 -27 23 -102 38 -165 14
-63 32 -137 40 -163 13 -47 13 -48 -11 -59 -14 -6 -28 -9 -31 -6 -3 3 -7 34
-9 69 -2 35 -8 78 -13 94 -7 23 -9 10 -7 -55 2 -47 7 -93 11 -104 5 -14 3 -17
-7 -14 -29 10 -74 388 -55 465 7 24 8 25 20 7 6 -10 17 -41 24 -69z m-400 -26
c-3 -8 -7 -3 -11 10 -4 17 -3 21 5 13 5 -5 8 -16 6 -23z m1330 -29 c-14 -22
-24 -19 -15 5 4 8 11 15 17 15 6 0 6 -7 -2 -20z m2 -42 c0 -20 -25 -17 -47 5
l-25 25 36 -12 c20 -6 36 -14 36 -18z m-1747 -23 c-3 -9 -8 -14 -10 -11 -3 3
-2 9 2 15 9 16 15 13 8 -4z m537 -12 c0 -16 -5 -35 -10 -43 -7 -11 -10 -4 -10
28 0 23 5 42 10 42 6 0 10 -12 10 -27z m236 -219 c6 -38 7 -67 2 -70 -14 -9
-15 -4 -20 73 -4 86 3 85 18 -3z m-2249 0 c-3 -3 -12 -4 -19 -1 -8 3 -5 6 6 6
11 1 17 -2 13 -5z m1986 -49 c-3 -9 -8 -14 -10 -11 -3 3 -2 9 2 15 9 16 15 13
8 -4z m-2836 -37 c-3 -7 -5 -2 -5 12 0 14 2 19 5 13 2 -7 2 -19 0 -25z m2859
-74 c2 -20 -1 -44 -6 -53 -8 -14 -9 -13 -10 4 0 11 -7 28 -15 38 -7 11 -11 26
-7 35 5 13 8 10 13 -13 l7 -30 1 34 c1 43 13 33 17 -15z m-582 -9 c3 -8 1 -15
-5 -15 -6 0 -7 -4 -4 -10 7 -12 -23 -2 -44 14 -11 9 -9 12 10 17 36 10 36 10
43 -6z m1005 -59 c9 -33 7 -43 -9 -66 -39 -55 -45 -53 -48 10 -2 43 2 66 14
85 20 30 28 25 43 -29z m-552 -48 c-3 -7 -5 -2 -5 12 0 14 2 19 5 13 2 -7 2
-19 0 -25z m40 10 c-3 -8 -6 -5 -6 6 -1 11 2 17 5 13 3 -3 4 -12 1 -19z m436
-76 c-4 -10 -11 -20 -17 -24 -39 -27 -49 23 -14 67 l22 28 7 -27 c4 -15 5 -35
2 -44z m-5173 -82 c0 -5 -5 -10 -11 -10 -5 0 -7 5 -4 10 3 6 8 10 11 10 2 0 4
-4 4 -10z m4566 -68 c-11 -11 15 -30 34 -25 11 3 20 1 20 -4 0 -14 -35 -9 -54
6 -18 15 -22 46 -5 36 6 -4 8 -10 5 -13z m803 -73 c14 -42 14 -41 -9 -29 -12
6 -20 21 -20 35 0 35 16 31 29 -6z m-670 -35 c14 -12 -19 -1 -35 12 -18 14
-18 14 6 3 14 -6 27 -13 29 -15z m132 -117 c-1 -4 -1 -14 -1 -24 0 -23 -13 -7
-15 17 -1 12 2 19 7 18 5 -2 9 -7 9 -11z m213 -173 c3 -8 2 -14 -2 -14 -12 0
-27 14 -29 27 -4 17 24 5 31 -13z m541 -110 c16 -25 34 -54 40 -65 28 -51 94
-152 146 -226 33 -45 59 -86 59 -91 0 -14 -107 -36 -128 -26 -9 4 -21 7 -27 7
-16 -1 -88 86 -88 105 0 9 -4 23 -10 30 -8 11 -12 11 -18 0 -6 -9 -9 -6 -9 10
0 25 3 24 54 -11 l28 -20 -11 21 c-6 11 -16 22 -23 25 -11 3 -11 7 0 19 11 13
7 15 -24 14 -25 -1 -38 4 -39 14 -2 8 -6 22 -9 30 -5 11 1 16 20 18 20 1 25
-2 20 -14 -3 -8 -2 -12 4 -9 6 3 10 -2 11 -12 0 -10 3 -13 5 -6 10 24 -16 53
-46 53 -29 0 -30 1 -30 50 0 48 25 130 39 130 4 0 20 -21 36 -46z m33 -372
c27 -29 46 -52 42 -52 -15 0 -110 111 -109 128 0 13 2 13 9 -4 4 -12 30 -44
58 -72z m-30 -12 c22 -26 28 -40 19 -40 -13 0 -67 60 -67 74 0 15 18 2 48 -34z
m-4255 5 c-3 -9 -8 -14 -10 -11 -3 3 -2 9 2 15 9 16 15 13 8 -4z m4234 -48
c-1 -5 -6 -8 -10 -8 -3 0 -22 -6 -41 -14 -57 -24 -61 -18 -20 28 39 43 39 44
56 23 10 -12 16 -25 15 -29z m403 -67 c0 -5 -4 -10 -10 -10 -5 0 -10 5 -10 10
0 6 5 10 10 10 6 0 10 -4 10 -10z m-125 -53 c12 -17 12 -24 0 -48 -20 -37 -36
-45 -50 -25 -7 9 -27 21 -44 27 -23 8 -29 14 -21 24 5 6 6 15 2 20 -4 4 3 4
16 1 16 -5 22 -3 22 7 0 32 51 28 75 -6z m-135 3 c0 -5 -2 -10 -4 -10 -3 0 -8
5 -11 10 -3 6 -1 10 4 10 6 0 11 -4 11 -10z m208 -25 c-3 -3 -9 2 -12 12 -6
14 -5 15 5 6 7 -7 10 -15 7 -18z m-1060 -15 c20 -8 32 -19 32 -30 0 -28 18
-34 23 -8 2 13 4 -5 3 -39 0 -59 -1 -61 -18 -46 -16 14 -17 13 -11 -23 3 -22
11 -44 18 -49 17 -14 33 -225 40 -535 3 -140 10 -338 15 -440 16 -344 16 -582
1 -676 -8 -43 -9 -45 -10 -14 -1 19 -6 42 -11 50 -8 13 -11 11 -16 -7 -4 -13
-10 -23 -15 -23 -5 0 -9 -15 -9 -34 0 -45 -14 -53 -43 -24 -19 19 -26 21 -35
11 -7 -7 -12 -18 -12 -24 0 -7 -3 -9 -7 -5 -4 4 -6 21 -5 39 2 31 -12 67 -22
56 -3 -3 -2 -20 3 -37 6 -20 6 -32 0 -32 -5 0 -9 4 -9 8 0 5 -7 17 -15 28 -15
18 -16 17 -10 -13 5 -27 3 -31 -12 -28 -10 2 -20 4 -23 4 -3 1 2 6 10 11 13 8
12 10 -4 10 -31 0 -64 45 -72 97 -3 27 -11 56 -16 66 -6 12 -5 17 6 17 17 0
58 -49 51 -60 -3 -5 -1 -11 5 -15 23 -14 8 36 -20 64 -28 27 -30 34 -27 90 2
33 0 58 -5 55 -4 -3 -8 -12 -8 -20 0 -8 -4 -12 -10 -9 -5 3 -10 1 -10 -4 0 -6
4 -11 8 -11 6 0 8 -50 2 -57 -2 -2 -3 -7 -4 -13 -3 -24 -22 -9 -29 24 -5 20
-13 36 -19 36 -5 0 -7 -9 -3 -19 3 -11 1 -22 -4 -26 -12 -6 -18 16 -24 88 -3
35 -2 46 6 38 6 -6 19 -11 29 -11 14 0 18 -9 19 -42 l1 -43 8 40 c9 45 4 65
-16 65 -8 0 -14 10 -15 23 -1 21 -1 21 -10 -3 -7 -19 -7 -14 -4 19 3 24 1 48
-4 55 -13 16 -22 68 -10 61 5 -4 9 -15 9 -26 0 -10 5 -19 10 -19 6 0 10 -11
10 -25 0 -14 5 -25 10 -25 6 0 15 -11 20 -25 5 -14 17 -25 27 -25 16 1 17 2 2
13 -9 7 -20 28 -24 47 -7 30 -9 32 -16 15 -6 -16 -8 -13 -8 15 -1 19 -8 53
-15 76 -11 30 -12 57 -6 109 5 38 7 72 4 76 -2 4 1 19 8 34 9 20 9 28 -1 38
-9 9 -14 9 -21 -3 -6 -9 -5 -19 0 -24 6 -6 10 -15 10 -21 0 -5 -6 -1 -12 9
-16 28 -21 171 -8 226 19 86 25 161 20 268 -3 59 -6 70 -16 58 -16 -23 -27
-20 -20 7 4 12 8 45 10 72 3 41 0 51 -13 52 -13 1 -16 -7 -13 -40 3 -23 2 -40
-2 -37 -9 9 -19 216 -11 239 3 12 13 21 21 21 9 0 14 11 14 29 0 18 8 35 20
44 11 8 17 17 13 20 -3 4 -13 1 -21 -6 -13 -10 -14 -9 -8 2 6 9 5 12 -5 9 -8
-3 -13 -17 -12 -32 2 -22 -1 -25 -12 -16 -11 10 -11 19 1 61 8 28 12 58 9 69
-4 12 0 22 11 28 14 8 12 10 -10 10 -35 0 -42 8 -25 28 12 14 14 14 27 -3 13
-16 14 -16 9 0 -5 12 -1 17 13 17 11 0 20 -6 20 -12 0 -9 3 -9 9 1 18 28 220
35 289 11z m1017 -12 c-7 -23 -7 -23 9 -3 14 17 17 18 26 5 6 -8 9 -30 6 -48
-3 -18 -1 -30 4 -27 4 3 11 -1 14 -7 3 -7 4 0 1 15 -4 19 -2 26 5 22 6 -4 10
-26 9 -50 -2 -33 -7 -45 -21 -48 -12 -4 -18 -14 -18 -34 2 -80 28 -394 33
-400 4 -3 7 1 7 10 0 23 32 21 60 -3 27 -24 48 -26 56 -6 10 27 19 28 377 27
142 -1 262 1 267 4 4 3 10 -1 12 -7 4 -10 34 -12 120 -10 93 3 118 0 131 -12
10 -10 37 -16 78 -17 97 -3 147 -49 123 -113 -9 -23 -49 -20 -93 8 -42 27 -77
36 -79 21 -1 -5 8 -10 21 -10 22 0 61 -25 52 -33 -3 -3 -11 1 -19 7 -10 8 -16
9 -21 1 -3 -5 -11 -10 -17 -10 -6 0 -8 3 -5 7 4 3 -2 13 -14 21 -11 8 -23 12
-26 8 -7 -6 -33 19 -33 32 0 16 -169 9 -179 -7 -5 -7 -13 -11 -19 -7 -6 3 -13
2 -17 -4 -9 -14 -52 -13 -62 3 -5 7 -10 -10 -13 -43 -5 -54 -5 -55 -43 -61
-45 -7 -57 -17 -37 -29 8 -6 12 -10 8 -10 -3 0 -14 -3 -22 -6 -12 -5 -15 -2
-9 12 4 12 3 15 -5 10 -7 -4 -12 -2 -12 3 0 6 -5 11 -11 11 -6 0 -8 -7 -5 -16
5 -13 3 -14 -6 -7 -15 12 -50 2 -48 -12 0 -6 -8 -11 -20 -13 -11 -2 -20 2 -20
9 0 7 -3 9 -7 6 -3 -4 -14 0 -23 8 -15 14 -19 14 -30 1 -10 -13 -16 -14 -45
-1 -39 16 -76 10 -68 -11 3 -8 0 -14 -6 -14 -6 0 -11 7 -11 16 0 8 -5 12 -10
9 -6 -4 -8 -11 -5 -16 4 -5 -1 -9 -9 -9 -9 0 -16 6 -16 13 0 9 -2 9 -8 0 -12
-19 -103 -14 -140 9 -18 11 -42 18 -52 15 -16 -4 -20 0 -20 21 0 20 -3 23 -12
14 -9 -9 -9 -18 0 -37 9 -19 9 -25 0 -25 -8 0 -9 -53 -5 -197 4 -109 9 -207
11 -218 2 -11 7 -91 11 -179 l7 -159 -33 7 c-19 3 -73 6 -121 7 -49 1 -88 5
-88 11 0 5 -4 7 -9 4 -15 -9 -21 34 -18 132 2 56 0 86 -6 77 -4 -9 -9 -42 -10
-75 -1 -33 -5 -60 -9 -60 -5 0 -8 -20 -8 -45 0 -37 -3 -45 -19 -45 -15 0 -20
10 -26 55 -9 79 -30 85 -22 7 4 -39 3 -62 -3 -62 -6 0 -10 8 -11 18 0 15 -1
14 -8 -3 -6 -15 -9 -9 -14 25 -3 27 -2 47 5 51 5 4 7 16 4 27 -6 18 -3 20 14
17 18 -3 20 -2 10 10 -7 8 -17 15 -23 15 -11 0 -36 30 -37 43 0 5 5 5 10 2 6
-3 10 -1 10 4 0 6 -7 11 -16 11 -13 0 -15 8 -9 43 9 59 37 120 47 104 5 -7 8
0 8 19 0 22 7 34 23 43 23 12 38 71 17 71 -5 0 -10 -10 -10 -22 0 -32 -15 -52
-30 -43 -9 5 -11 4 -6 -3 4 -7 2 -12 -4 -12 -7 0 -10 9 -7 23 3 12 1 31 -3 42
-7 17 -9 16 -9 -9 -1 -20 -5 -27 -15 -23 -8 3 -17 1 -19 -6 -2 -7 -3 -5 -2 3
0 8 7 14 13 13 7 -2 12 2 12 7 0 6 -5 10 -11 10 -8 0 -8 4 -1 13 6 7 9 25 8
40 -3 21 0 27 10 23 8 -3 14 -1 14 3 0 5 -4 11 -9 13 -5 2 -12 22 -16 46 -6
37 -5 42 12 42 11 0 22 2 25 5 8 8 -3 55 -14 55 -5 0 -8 -6 -6 -14 2 -8 -1
-15 -7 -16 -18 -1 -17 68 1 95 9 14 14 28 10 32 -3 3 -6 1 -6 -6 0 -7 -4 -9
-10 -6 -12 7 -14 115 -2 115 5 0 4 20 -2 45 -6 25 -14 45 -18 45 -5 0 -8 25
-8 55 0 40 4 57 15 61 8 4 15 12 15 19 0 18 29 47 40 40 5 -3 12 5 16 17 7 22
7 22 15 3 7 -18 15 195 9 220 -7 24 -6 81 1 95 4 8 15 24 24 35 15 19 16 18 9
-15 -3 -19 -10 -37 -14 -40 -5 -3 25 -6 65 -7 40 -1 90 -6 111 -12 41 -11 57
-2 46 28 -4 10 -7 11 -10 3 -2 -7 -11 -12 -19 -12 -11 0 -13 4 -6 13 6 6 13
24 17 40 3 15 9 27 12 27 3 0 2 -10 -1 -22z m-1405 -69 c0 -17 4 -38 9 -47 5
-9 5 -26 0 -37 -4 -11 -8 -17 -10 -12 -3 13 -5 21 -13 57 -4 19 -10 43 -12 53
-4 11 0 17 10 17 11 0 16 -9 16 -31z m34 6 c4 -14 2 -33 -3 -43 -9 -15 -10
-15 -11 3 0 11 -3 30 -6 43 -4 12 -2 22 4 22 5 0 13 -11 16 -25z m996 -12 c0
15 9 17 55 15 30 -2 55 -6 55 -10 0 -5 -5 -8 -11 -8 -7 0 -10 -33 -7 -104 1
-57 6 -102 9 -100 3 2 6 -12 7 -31 1 -19 -3 -37 -8 -40 -6 -3 -10 -1 -10 6 0
8 -5 6 -13 -5 -11 -15 -12 -13 -11 18 1 19 5 39 9 45 3 6 0 11 -8 11 -15 0
-27 -41 -27 -91 0 -16 -4 -29 -10 -29 -5 0 -10 -9 -10 -20 0 -11 -4 -20 -10
-20 -5 0 -10 25 -10 55 0 30 -4 55 -10 55 -6 0 -10 40 -10 101 0 55 -5 109
-11 120 -6 12 -8 28 -4 37 6 15 8 15 21 -2 12 -17 14 -18 14 -3z m-40 -127 c0
-54 -11 -38 -15 20 -2 30 0 42 6 33 5 -8 9 -32 9 -53z m1085 54 c3 -5 1 -10
-4 -10 -6 0 -11 5 -11 10 0 6 2 10 4 10 3 0 8 -4 11 -10z m-587 -23 c2 -9 -1
-17 -7 -17 -6 0 -7 7 -4 17 4 11 3 14 -5 9 -7 -4 -12 -2 -12 4 0 18 25 6 28
-13z m-1438 -57 c0 -5 -4 -10 -10 -10 -5 0 -10 5 -10 10 0 6 5 10 10 10 6 0
10 -4 10 -10z m-33 -22 c-3 -8 -6 -5 -6 6 -1 11 2 17 5 13 3 -3 4 -12 1 -19z
m1470 2 c-5 -31 -17 -36 -17 -7 0 15 4 27 10 27 5 0 9 -9 7 -20z m-5876 -93
c-10 -9 -11 -8 -5 6 3 10 9 15 12 12 3 -3 0 -11 -7 -18z m1599 19 c0 -3 -4 -8
-10 -11 -5 -3 -10 -1 -10 4 0 6 5 11 10 11 6 0 10 -2 10 -4z m2777 -88 c-3 -8
-6 -5 -6 6 -1 11 2 17 5 13 3 -3 4 -12 1 -19z m1055 -78 c2 -22 0 -40 -4 -40
-5 0 -8 18 -8 40 0 22 2 40 4 40 2 0 6 -18 8 -40z m-1015 -62 c-3 -8 -6 -5 -6
6 -1 11 2 17 5 13 3 -3 4 -12 1 -19z m41 -113 c0 -29 0 -29 -8 5 -4 19 -10 44
-14 55 -5 13 -2 11 8 -5 8 -14 15 -38 14 -55z m2360 -14 c43 -12 59 -25 42
-36 -5 -3 -10 -1 -10 5 0 6 -4 9 -9 5 -13 -8 -92 6 -86 15 3 4 -4 10 -14 13
-12 3 -22 -1 -25 -10 -5 -12 -9 -13 -21 -3 -37 31 26 37 123 11z m-2352 -66
c-6 -24 -26 -35 -26 -15 0 6 5 10 11 10 5 0 7 5 4 10 -4 6 -4 19 0 28 10 24
19 -2 11 -33z m-466 1 c0 -21 -40 -64 -46 -49 -4 9 -13 9 -31 2 -29 -11 -53
-6 -53 11 0 5 18 10 40 10 22 0 40 5 40 10 0 6 7 10 16 10 8 0 12 5 9 10 -3 6
1 10 9 10 9 0 16 -6 16 -14z m-80 -6 c-20 -13 -60 -13 -60 0 0 6 17 10 38 10
27 0 33 -3 22 -10z m-73 -45 c-4 -8 -11 -15 -17 -15 -7 0 -7 6 0 21 13 23 26
19 17 -6z m2706 -5 c7 -27 -14 -31 -35 -7 -22 25 -23 22 6 25 16 1 25 -5 29
-18z m-2186 -22 c-3 -7 -5 -2 -5 12 0 14 2 19 5 13 2 -7 2 -19 0 -25z m1583 7
c10 -12 10 -15 -4 -15 -9 0 -16 7 -16 15 0 8 2 15 4 15 2 0 9 -7 16 -15z
m-523 -72 c-3 -10 -5 -2 -5 17 0 19 2 27 5 18 2 -10 2 -26 0 -35z m643 -2 c0
-5 -7 -12 -16 -15 -14 -5 -15 -4 -4 9 14 17 20 19 20 6z m-1633 -88 c-3 -10
-5 -4 -5 12 0 17 2 24 5 18 2 -7 2 -21 0 -30z m1553 27 c-8 -5 -19 -10 -25
-10 -5 0 -3 5 5 10 8 5 20 10 25 10 6 0 3 -5 -5 -10z m-5580 -144 c0 -3 -4 -8
-10 -11 -5 -3 -10 -1 -10 4 0 6 5 11 10 11 6 0 10 -2 10 -4z m4052 -70 c2 -19
0 -32 -4 -30 -8 5 -12 64 -4 64 2 0 6 -15 8 -34z m-3912 4 c-24 -15 -37 -11
-16 5 11 8 22 12 25 9 3 -3 -1 -9 -9 -14z m4930 -6 c0 -14 -3 -14 -15 -4 -8 7
-15 14 -15 16 0 2 7 4 15 4 8 0 15 -7 15 -16z m477 -16 c-3 -8 -6 -5 -6 6 -1
11 2 17 5 13 3 -3 4 -12 1 -19z m-5247 2 c0 -5 -5 -10 -11 -10 -5 0 -7 5 -4
10 3 6 8 10 11 10 2 0 4 -4 4 -10z m3750 -41 c0 -6 -4 -7 -10 -4 -5 3 -10 11
-10 16 0 6 5 7 10 4 6 -3 10 -11 10 -16z m-3677 -6 c-7 -2 -19 -2 -25 0 -7 3
-2 5 12 5 14 0 19 -2 13 -5z m3654 -75 c-3 -7 -5 -2 -5 12 0 14 2 19 5 13 2
-7 2 -19 0 -25z m-4527 2 c0 -5 -5 -10 -11 -10 -5 0 -7 5 -4 10 3 6 8 10 11
10 2 0 4 -4 4 -10z m1010 -16 c0 -8 -4 -12 -10 -9 -5 3 -10 10 -10 16 0 5 5 9
10 9 6 0 10 -7 10 -16z m27 -30 c-3 -3 -12 -4 -19 -1 -8 3 -5 6 6 6 11 1 17
-2 13 -5z m65 -19 c-8 -16 -9 -16 -15 -1 -4 10 -3 15 3 11 6 -3 10 -1 10 6 0
7 3 10 6 6 3 -3 2 -13 -4 -22z m-35 -7 c-3 -8 -6 -5 -6 6 -1 11 2 17 5 13 3
-3 4 -12 1 -19z m-77 -33 c7 -9 8 -15 2 -15 -5 0 -12 7 -16 15 -3 8 -4 15 -2
15 2 0 9 -7 16 -15z m4560 -10 c0 -8 -2 -15 -4 -15 -2 0 -6 7 -10 15 -3 8 -1
15 4 15 6 0 10 -7 10 -15z m-20 -92 c0 -18 -4 -33 -10 -33 -5 0 -10 21 -10 48
0 34 3 43 10 32 5 -8 10 -30 10 -47z m-5690 1 c0 -8 -4 -12 -10 -9 -5 3 -10
10 -10 16 0 5 5 9 10 9 6 0 10 -7 10 -16z m5880 -40 c0 -8 -4 -12 -10 -9 -5 3
-10 10 -10 16 0 5 5 9 10 9 6 0 10 -7 10 -16z m-173 -10 c-3 -3 -12 -4 -19 -1
-8 3 -5 6 6 6 11 1 17 -2 13 -5z m-1030 -106 c-3 -8 -6 -5 -6 6 -1 11 2 17 5
13 3 -3 4 -12 1 -19z m121 -72 c-2 -13 -10 -21 -23 -21 -11 -1 -19 -6 -17 -13
1 -7 -6 -12 -15 -12 -13 0 -14 3 -6 11 6 6 10 17 9 23 -2 6 -1 8 1 3 8 -12 23
3 23 23 0 13 5 18 16 13 8 -3 14 -15 12 -27z m1062 5 c0 -5 -7 -12 -16 -15
-14 -5 -15 -4 -4 9 14 17 20 19 20 6z m-3830 -21 c0 -5 -2 -10 -4 -10 -3 0 -8
5 -11 10 -3 6 -1 10 4 10 6 0 11 -4 11 -10z m-1193 -32 c-3 -7 -5 -2 -5 12 0
14 2 19 5 13 2 -7 2 -19 0 -25z m4543 12 c0 -5 -4 -10 -10 -10 -5 0 -10 5 -10
10 0 6 5 10 10 10 6 0 10 -4 10 -10z m-4430 -22 c0 -19 -2 -20 -10 -8 -13 19
-13 30 0 30 6 0 10 -10 10 -22z m4450 -14 c0 -2 -7 -4 -15 -4 -8 0 -15 4 -15
10 0 5 7 7 15 4 8 -4 15 -8 15 -10z m-610 2 c0 -3 -4 -8 -10 -11 -5 -3 -10 -1
-10 4 0 6 5 11 10 11 6 0 10 -2 10 -4z m-3290 -36 c0 -5 -5 -10 -11 -10 -5 0
-7 5 -4 10 3 6 8 10 11 10 2 0 4 -4 4 -10z m-756 -65 c-4 -8 -10 -15 -15 -15
-4 0 -6 7 -3 15 4 8 10 15 15 15 4 0 6 -7 3 -15z m5326 -109 c0 -2 -7 -7 -16
-10 -8 -3 -12 -2 -9 4 6 10 25 14 25 6z m-4285 -26 c3 -5 1 -10 -4 -10 -6 0
-11 5 -11 10 0 6 2 10 4 10 3 0 8 -4 11 -10z m3728 -19 c4 -18 2 -18 -20 -8
-23 10 -23 12 -6 18 10 4 19 8 19 8 1 1 4 -8 7 -18z m102 -101 c-4 -6 -10 -8
-15 -5 -5 3 -11 1 -15 -5 -8 -13 -45 -13 -45 1 0 5 4 7 10 4 5 -3 18 -1 27 4
23 13 46 14 38 1z m-5575 -10 c0 -5 -5 -10 -11 -10 -5 0 -7 5 -4 10 3 6 8 10
11 10 2 0 4 -4 4 -10z"/>
<path d="M8498 5803 c12 -2 30 -2 40 0 9 3 -1 5 -23 4 -22 0 -30 -2 -17 -4z"/>
<path d="M5376 5024 c-5 -12 -2 -15 10 -10 8 3 21 6 27 6 7 0 6 4 -3 10 -21
14 -27 12 -34 -6z"/>
<path d="M5455 5030 c4 -6 11 -8 16 -5 14 9 11 15 -7 15 -8 0 -12 -5 -9 -10z"/>
<path d="M5230 4690 c-9 -6 -10 -10 -3 -10 6 0 15 5 18 10 8 12 4 12 -15 0z"/>
<path d="M5262 4510 c0 -14 2 -19 5 -12 2 6 2 18 0 25 -3 6 -5 1 -5 -13z"/>
<path d="M5272 4445 c0 -16 2 -22 5 -12 2 9 2 23 0 30 -3 6 -5 -1 -5 -18z"/>
<path d="M5281 4384 c0 -11 3 -14 6 -6 3 7 2 16 -1 19 -3 4 -6 -2 -5 -13z"/>
<path d="M5292 4320 c0 -14 2 -19 5 -12 2 6 2 18 0 25 -3 6 -5 1 -5 -13z"/>
<path d="M5281 4254 c0 -11 3 -14 6 -6 3 7 2 16 -1 19 -3 4 -6 -2 -5 -13z"/>
<path d="M5171 4224 c0 -11 3 -14 6 -6 3 7 2 16 -1 19 -3 4 -6 -2 -5 -13z"/>
<path d="M5210 3775 c0 -9 6 -12 15 -9 8 4 12 10 9 15 -8 14 -24 10 -24 -6z"/>
<path d="M5071 4394 c0 -11 3 -14 6 -6 3 7 2 16 -1 19 -3 4 -6 -2 -5 -13z"/>
<path d="M4811 4374 c0 -11 3 -14 6 -6 3 7 2 16 -1 19 -3 4 -6 -2 -5 -13z"/>
<path d="M4715 4159 c-4 -6 -5 -12 -2 -15 2 -3 7 2 10 11 7 17 1 20 -8 4z"/>
<path d="M4697 4123 c-10 -16 -26 -86 -18 -77 11 12 32 76 27 81 -2 3 -6 1 -9
-4z"/>
<path d="M4680 3985 c0 -8 5 -15 10 -15 6 0 10 7 10 15 0 8 -4 15 -10 15 -5 0
-10 -7 -10 -15z"/>
<path d="M4527 3743 c-4 -3 -7 -19 -7 -34 0 -22 4 -27 16 -22 11 4 12 8 4 13
-7 4 -9 16 -5 29 6 21 4 26 -8 14z"/>
<path d="M4675 3560 c-3 -5 -1 -10 4 -10 6 0 11 5 11 10 0 6 -2 10 -4 10 -3 0
-8 -4 -11 -10z"/>
<path d="M4736 3497 c5 -14 84 -61 90 -54 4 3 -83 67 -91 67 -2 0 -2 -6 1 -13z"/>
<path d="M4880 3422 c0 -4 9 -13 20 -19 16 -11 18 -10 14 1 -6 15 -34 30 -34
18z"/>
<path d="M5037 3289 c7 -7 15 -10 18 -7 3 3 -2 9 -12 12 -14 6 -15 5 -6 -5z"/>
<path d="M5194 3171 c20 -22 26 -25 26 -13 0 4 -10 13 -22 21 -23 14 -23 14
-4 -8z"/>
<path d="M5286 3175 c4 -8 8 -15 10 -15 2 0 4 7 4 15 0 8 -4 15 -10 15 -5 0
-7 -7 -4 -15z"/>
<path d="M5350 3186 c0 -3 9 -10 20 -16 11 -6 20 -8 20 -6 0 3 -9 10 -20 16
-11 6 -20 8 -20 6z"/>
<path d="M5204 3131 c21 -23 26 -26 26 -11 0 5 -10 15 -22 21 -23 12 -23 12
-4 -10z"/>
<path d="M5315 3140 c3 -5 11 -10 16 -10 6 0 7 5 4 10 -3 6 -11 10 -16 10 -6
0 -7 -4 -4 -10z"/>
<path d="M5430 3096 c0 -2 7 -12 16 -20 17 -18 39 -22 29 -6 -7 11 -45 33 -45
26z"/>
<path d="M5390 3069 c0 -5 5 -7 10 -4 6 3 10 8 10 11 0 2 -4 4 -10 4 -5 0 -10
-5 -10 -11z"/>
<path d="M5896 2765 c-3 -8 -1 -15 4 -15 6 0 10 7 10 15 0 8 -2 15 -4 15 -2 0
-6 -7 -10 -15z"/>
<path d="M5850 2758 c0 -9 5 -20 11 -23 17 -11 18 -2 3 19 -12 17 -14 17 -14
4z"/>
<path d="M6137 2226 c-3 -8 0 -19 7 -25 10 -9 12 -6 8 14 -5 29 -8 31 -15 11z"/>
<path d="M4892 2160 c0 -14 2 -19 5 -12 2 6 2 18 0 25 -3 6 -5 1 -5 -13z"/>
<path d="M5160 2095 c0 -5 5 -17 10 -25 5 -8 10 -10 10 -5 0 6 -5 17 -10 25
-5 8 -10 11 -10 5z"/>
<path d="M4920 1954 c0 -14 4 -23 9 -20 5 3 7 15 4 26 -7 28 -13 25 -13 -6z"/>
<path d="M4844 1910 c3 -14 6 -33 6 -42 0 -10 5 -18 10 -18 15 0 12 24 -6 56
-15 27 -15 27 -10 4z"/>
<path d="M4916 1889 c-10 -53 -5 -66 10 -25 8 23 11 43 6 48 -6 6 -12 -4 -16
-23z"/>
<path d="M4831 1874 c0 -11 3 -14 6 -6 3 7 2 16 -1 19 -3 4 -6 -2 -5 -13z"/>
<path d="M4873 1818 c0 -7 6 -19 14 -26 7 -7 13 -9 13 -4 0 4 -6 16 -13 26
-10 14 -14 15 -14 4z"/>
<path d="M4882 1690 c0 -14 2 -19 5 -12 2 6 2 18 0 25 -3 6 -5 1 -5 -13z"/>
<path d="M4900 1605 c0 -38 2 -66 4 -64 8 7 10 118 3 126 -4 3 -7 -24 -7 -62z"/>
<path d="M5240 1640 c0 -11 2 -20 4 -20 2 0 6 9 9 20 3 11 1 20 -4 20 -5 0 -9
-9 -9 -20z"/>
<path d="M5085 1460 c-3 -5 -2 -10 4 -10 5 0 13 5 16 10 3 6 2 10 -4 10 -5 0
-13 -4 -16 -10z"/>
<path d="M4888 1260 c-3 -17 -1 -33 4 -36 4 -3 8 11 8 30 0 44 -6 47 -12 6z"/>
<path d="M4905 1180 c-3 -5 -1 -10 4 -10 6 0 11 5 11 10 0 6 -2 10 -4 10 -3 0
-8 -4 -11 -10z"/>
<path d="M4931 1044 c0 -11 3 -14 6 -6 3 7 2 16 -1 19 -3 4 -6 -2 -5 -13z"/>
<path d="M4952 910 c0 -14 2 -19 5 -12 2 6 2 18 0 25 -3 6 -5 1 -5 -13z"/>
<path d="M4950 828 c0 -36 4 -35 14 5 4 16 2 27 -4 27 -5 0 -10 -14 -10 -32z"/>
<path d="M4986 700 c7 -28 12 -35 18 -29 2 2 -2 15 -10 29 l-15 25 7 -25z"/>
<path d="M5004 613 c2 -10 8 -38 12 -63 7 -43 7 -43 15 -17 7 27 4 71 -7 89
-10 15 -25 8 -20 -9z"/>
<path d="M5194 359 c-3 -6 -1 -16 4 -21 8 -8 11 -5 9 11 -1 24 -3 25 -13 10z"/>
<path d="M5920 1759 c0 -5 5 -7 10 -4 6 3 10 8 10 11 0 2 -4 4 -10 4 -5 0 -10
-5 -10 -11z"/>
<path d="M5957 1745 c-4 -8 -2 -17 3 -20 6 -4 10 3 10 14 0 25 -6 27 -13 6z"/>
<path d="M5876 1722 c-2 -4 -1 -14 5 -22 7 -12 9 -10 9 8 0 23 -5 28 -14 14z"/>
<path d="M5960 1700 c-13 -8 -12 -10 3 -10 9 0 17 5 17 10 0 12 -1 12 -20 0z"/>
<path d="M5897 1651 c-3 -14 -1 -18 9 -14 16 6 18 19 5 27 -5 3 -11 -3 -14
-13z"/>
<path d="M7023 1623 c9 -2 23 -2 30 0 6 3 -1 5 -18 5 -16 0 -22 -2 -12 -5z"/>
<path d="M7174 1621 c3 -5 25 -7 49 -4 39 4 41 3 23 -11 -17 -14 -17 -16 -3
-16 9 0 20 6 24 14 4 7 15 16 23 19 8 3 -16 6 -53 6 -38 1 -66 -3 -63 -8z"/>
<path d="M6895 1610 c-4 -6 6 -10 24 -10 16 0 33 5 36 10 4 6 -6 10 -24 10
-16 0 -33 -4 -36 -10z"/>
<path d="M7078 1613 c6 -2 18 -2 25 0 6 3 1 5 -13 5 -14 0 -19 -2 -12 -5z"/>
<path d="M6810 1596 c0 -12 7 -14 33 -9 39 7 48 13 19 13 -11 0 -27 3 -36 6
-10 4 -16 1 -16 -10z"/>
<path d="M7285 1600 c-2 -4 1 -7 8 -7 7 -1 40 -4 74 -7 39 -4 64 -3 68 4 3 6
12 7 18 4 8 -4 7 -2 -1 7 -11 12 -14 12 -22 -1 -7 -10 -13 -11 -17 -5 -9 11
-121 16 -128 5z"/>
<path d="M6273 1545 c0 -22 2 -30 4 -17 2 12 2 30 0 40 -3 9 -5 -1 -4 -23z"/>
<path d="M6335 1570 c-3 -5 1 -10 10 -10 9 0 13 5 10 10 -3 6 -8 10 -10 10 -2
0 -7 -4 -10 -10z"/>
<path d="M6636 1573 c-4 -5 -35 -7 -69 -6 -45 2 -55 0 -37 -6 41 -15 96 -12
110 4 13 15 9 21 -4 8z"/>
<path d="M6665 1560 c3 -5 13 -10 21 -10 8 0 14 5 14 10 0 6 -9 10 -21 10 -11
0 -17 -4 -14 -10z"/>
<path d="M6878 1563 c12 -2 30 -2 40 0 9 3 -1 5 -23 4 -22 0 -30 -2 -17 -4z"/>
<path d="M7290 1560 c0 -5 5 -10 10 -10 6 0 10 5 10 10 0 6 -4 10 -10 10 -5 0
-10 -4 -10 -10z"/>
<path d="M6738 1553 c12 -2 32 -2 45 0 12 2 2 4 -23 4 -25 0 -35 -2 -22 -4z"/>
<path d="M7421 1534 c0 -11 3 -14 6 -6 3 7 2 16 -1 19 -3 4 -6 -2 -5 -13z"/>
<path d="M6335 1530 c3 -5 14 -10 23 -10 15 0 15 2 2 10 -20 13 -33 13 -25 0z"/>
<path d="M6891 1531 c-10 -6 -10 -10 -1 -16 13 -8 24 -1 19 14 -3 6 -10 7 -18
2z"/>
<path d="M6384 1515 c-10 -8 -14 -14 -9 -15 15 0 40 18 34 24 -3 3 -14 -1 -25
-9z"/>
<path d="M6615 1520 c3 -5 8 -10 11 -10 2 0 4 5 4 10 0 6 -5 10 -11 10 -5 0
-7 -4 -4 -10z"/>
<path d="M6590 1460 c0 -5 5 -10 11 -10 5 0 7 5 4 10 -3 6 -8 10 -11 10 -2 0
-4 -4 -4 -10z"/>
<path d="M5902 1400 c-7 -12 -8 -20 -2 -20 5 0 10 5 10 11 0 5 5 7 10 4 6 -3
10 1 10 9 0 22 -13 20 -28 -4z"/>
<path d="M5974 1309 c-3 -6 -2 -15 4 -21 6 -6 11 -2 15 11 5 22 -7 29 -19 10z"/>
<path d="M6040 1306 c0 -8 4 -17 9 -20 5 -4 7 3 4 14 -6 23 -13 26 -13 6z"/>
<path d="M5971 1222 c0 -19 -5 -31 -11 -27 -6 3 -10 -4 -10 -17 l0 -22 16 22
c8 12 13 35 11 50 -4 25 -4 24 -6 -6z"/>
<path d="M5900 1175 c0 -8 8 -11 20 -8 11 3 20 7 20 8 0 1 -9 5 -20 8 -12 3
-20 0 -20 -8z"/>
<path d="M6000 1109 c0 -19 -3 -59 -6 -89 -5 -41 -3 -52 5 -44 12 11 18 150 8
161 -4 3 -7 -9 -7 -28z"/>
<path d="M6022 1120 c0 -14 2 -19 5 -12 2 6 2 18 0 25 -3 6 -5 1 -5 -13z"/>
<path d="M6045 1040 c3 -5 8 -10 11 -10 2 0 4 5 4 10 0 6 -5 10 -11 10 -5 0
-7 -4 -4 -10z"/>
<path d="M5911 864 c0 -11 3 -14 6 -6 3 7 2 16 -1 19 -3 4 -6 -2 -5 -13z"/>
<path d="M5981 784 c0 -11 3 -14 6 -6 3 7 2 16 -1 19 -3 4 -6 -2 -5 -13z"/>
<path d="M5836 2065 c3 -27 8 -93 12 -145 l7 -95 8 75 c10 100 10 131 -3 144
-7 7 -10 5 -12 -4 0 -8 -4 5 -9 30 l-7 45 4 -50z"/>
<path d="M5892 2090 c0 -14 2 -19 5 -12 2 6 2 18 0 25 -3 6 -5 1 -5 -13z"/>
<path d="M6150 5995 c0 -71 3 -126 6 -122 7 7 6 239 -1 246 -3 2 -5 -53 -5
-124z"/>
<path d="M6421 6053 c-19 -4 -21 -7 -10 -14 10 -6 10 -9 2 -9 -7 0 -13 -4 -13
-10 0 -5 9 -10 20 -10 11 0 20 7 20 15 0 10 10 15 28 16 24 0 25 1 7 9 -11 5
-22 8 -25 8 -3 0 -16 -3 -29 -5z"/>
<path d="M7660 6045 c-7 -8 -23 -15 -36 -15 -15 0 -24 -6 -24 -16 0 -11 5 -14
17 -9 10 3 46 9 80 12 72 7 92 28 30 32 -22 1 -44 4 -48 6 -4 3 -12 -2 -19
-10z"/>
<path d="M8888 6043 c7 -3 16 -2 19 1 4 3 -2 6 -13 5 -11 0 -14 -3 -6 -6z"/>
<path d="M6355 6010 c4 -6 11 -8 16 -5 14 9 11 15 -7 15 -8 0 -12 -5 -9 -10z"/>
<path d="M7148 5983 c7 -3 16 -2 19 1 4 3 -2 6 -13 5 -11 0 -14 -3 -6 -6z"/>
<path d="M7800 5980 c0 -5 7 -10 16 -10 8 0 12 5 9 10 -3 6 -10 10 -16 10 -5
0 -9 -4 -9 -10z"/>
<path d="M7873 5974 c-9 -9 -10 -15 -2 -20 14 -8 30 8 21 22 -5 9 -10 8 -19
-2z"/>
<path d="M8334 5974 c-17 -14 -17 -15 -1 -10 10 3 23 6 28 6 5 0 9 5 9 10 0
14 -13 12 -36 -6z"/>
<path d="M8606 5974 c-5 -12 -2 -15 10 -10 8 3 18 6 20 6 2 0 4 5 4 10 0 16
-27 11 -34 -6z"/>
<path d="M6965 5970 c-3 -5 3 -10 14 -10 12 0 21 5 21 10 0 6 -6 10 -14 10 -8
0 -18 -4 -21 -10z"/>
<path d="M8400 5965 c0 -16 16 -20 24 -6 3 5 -1 11 -9 15 -9 3 -15 0 -15 -9z"/>
<path d="M8470 5971 c-25 -4 -30 -8 -18 -13 23 -9 88 -2 101 11 12 12 -22 13
-83 2z"/>
<path d="M7920 5944 c0 -21 -4 -24 -20 -19 -11 3 -36 1 -55 -6 -29 -11 -40
-11 -56 -1 -12 8 -26 9 -35 4 -25 -14 60 -45 109 -39 61 7 118 30 112 44 -2 7
2 13 9 13 8 0 16 7 20 15 7 18 -5 20 -22 3 -10 -10 -17 -10 -32 0 -27 17 -30
16 -30 -14z"/>
<path d="M8128 5956 c-20 -14 -24 -36 -8 -36 6 0 13 7 16 15 4 8 10 15 15 15
5 0 9 -7 9 -15 0 -17 6 -18 35 -5 19 8 19 9 -3 9 -12 1 -25 8 -28 16 -7 18
-14 18 -36 1z"/>
<path d="M8571 5924 c6 -8 18 -14 26 -14 20 0 8 16 -17 23 -17 4 -19 3 -9 -9z"/>
<path d="M8480 5913 c0 -6 -15 -14 -32 -18 -30 -7 -31 -8 -9 -12 24 -5 61 21
48 33 -4 4 -7 3 -7 -3z"/>
<path d="M8530 5910 c0 -6 7 -10 15 -10 8 0 15 2 15 4 0 2 -7 6 -15 10 -8 3
-15 1 -15 -4z"/>
<path d="M6818 5903 c12 -2 32 -2 45 0 12 2 2 4 -23 4 -25 0 -35 -2 -22 -4z"/>
<path d="M6988 5903 c6 -2 18 -2 25 0 6 3 1 5 -13 5 -14 0 -19 -2 -12 -5z"/>
<path d="M6958 5883 c7 -3 16 -2 19 1 4 3 -2 6 -13 5 -11 0 -14 -3 -6 -6z"/>
<path d="M7808 5853 c6 -2 18 -2 25 0 6 3 1 5 -13 5 -14 0 -19 -2 -12 -5z"/>
<path d="M5148 5803 c-15 -4 -24 -22 -34 -65 -1 -5 -2 -34 -3 -66 -1 -57 -2
-59 -38 -77 -38 -19 -38 -19 -11 -23 38 -5 66 13 63 40 -1 13 0 15 2 6 2 -10
6 -18 9 -18 2 0 27 15 57 34 51 33 53 35 49 75 -2 23 -8 41 -13 41 -5 0 -6 14
-2 30 5 29 4 30 -28 29 -19 -1 -42 -3 -51 -6z"/>
<path d="M4825 5750 c-182 -47 -220 -63 -223 -92 l-3 -26 88 5 c97 6 251 -17
265 -39 4 -7 8 -8 8 -2 0 5 -4 14 -10 20 -5 5 -11 21 -14 34 -2 14 -5 25 -6
25 -1 0 -3 19 -4 42 -2 27 1 41 8 40 16 -3 37 -66 30 -92 -5 -20 -3 -23 14
-18 18 4 19 7 7 30 -8 15 -17 43 -20 65 -4 21 -12 38 -18 38 -7 -1 -61 -14
-122 -30z"/>
<path d="M4164 5602 l-11 -30 -156 -3 c-85 -2 -157 -6 -159 -9 -2 -3 0 -63 3
-135 3 -71 6 -120 7 -108 1 12 7 25 12 28 7 4 9 -42 8 -132 l-2 -138 -6 110
-6 110 -2 -124 -2 -124 138 7 138 6 36 -37 36 -38 7 -185 c4 -102 11 -192 16
-200 4 -8 6 15 4 55 -7 95 -23 488 -31 720 -3 105 -9 205 -13 223 l-6 33 -11
-29z m-266 -79 c-10 -2 -18 -9 -18 -14 0 -5 -7 -9 -15 -9 -8 0 -15 7 -15 15 0
10 10 15 33 14 17 -1 24 -3 15 -6z m-29 -99 c-2 -74 -19 -69 -19 7 0 37 4 58
10 54 5 -3 9 -31 9 -61z m81 -344 c-8 -5 -26 -9 -40 -9 l-25 1 25 8 c14 4 32
8 40 9 13 1 13 0 0 -9z m153 -7 c-13 -2 -35 -2 -50 0 -16 2 -5 4 22 4 28 0 40
-2 28 -4z"/>
<path d="M213 5375 c4 -9 7 -37 7 -61 l0 -44 123 0 c68 0 126 2 128 4 2 2 2
29 1 59 l-4 55 -66 -1 c-37 0 -57 -3 -44 -5 12 -2 22 -10 22 -18 0 -12 -4 -12
-21 -4 -11 7 -23 10 -25 7 -5 -4 -66 7 -108 20 -15 4 -18 2 -13 -12z m57 -16
c0 -6 -7 -8 -16 -5 -8 3 -13 2 -10 -2 2 -4 1 -14 -5 -22 -7 -12 -9 -11 -9 6 0
11 3 24 7 27 10 11 33 8 33 -4z"/>
<path d="M561 5214 c0 -11 3 -14 6 -6 3 7 2 16 -1 19 -3 4 -6 -2 -5 -13z"/>
<path d="M561 5174 c0 -11 3 -14 6 -6 3 7 2 16 -1 19 -3 4 -6 -2 -5 -13z"/>
<path d="M2225 5153 c-33 -8 -45 -24 -45 -57 0 -63 16 -71 132 -68 113 4 138
15 138 61 0 15 -7 37 -16 49 -14 20 -23 22 -102 21 -48 -1 -96 -4 -107 -6z
m161 -37 c13 -52 4 -61 -64 -64 l-62 -3 0 46 0 45 60 0 c55 0 60 -2 66 -24z"/>
<path d="M765 5096 c-28 -20 -26 -83 4 -107 21 -17 35 -18 125 -13 55 4 107
11 114 17 17 14 15 83 -4 101 -21 21 -211 23 -239 2z m188 -43 c2 -21 2 -41 0
-45 -2 -5 -33 -8 -69 -8 l-64 0 0 45 0 45 64 0 64 0 5 -37z m-181 -22 c2 -17
1 -28 -4 -25 -8 5 -12 54 -4 54 2 0 6 -13 8 -29z"/>
<path d="M2023 5050 c0 -36 2 -50 4 -32 2 17 2 47 0 65 -2 17 -4 3 -4 -33z"/>
<path d="M6138 4653 c7 -3 16 -2 19 1 4 3 -2 6 -13 5 -11 0 -14 -3 -6 -6z"/>
<path d="M2212 4620 c2 -6 7 -11 11 -11 4 1 17 1 29 1 27 0 21 5 -15 14 -20 5
-28 3 -25 -4z"/>
</g>
</svg>
